/* XPM */
static char *c7dd9b7f73b846c3f131a4af3c58e135tDtbriFRKAVOalUz[] = {
/* columns rows colors chars-per-pixel */
"64 64 192 2 ",
"   c #341D0A",
".  c #3E250D",
"X  c #3D2211",
"o  c #40250C",
"O  c #452A0F",
"+  c #48280F",
"@  c #49321B",
"#  c #543415",
"$  c #563816",
"%  c #5D3916",
"&  c #553619",
"*  c #58371A",
"=  c #56391D",
"-  c #5E3C1A",
";  c #633C16",
":  c #643E1A",
">  c #693E19",
",  c #4E3823",
"<  c #523620",
"1  c #563B23",
"2  c #5B3F25",
"3  c #523C28",
"4  c #6B4016",
"5  c #66401B",
"6  c #6C431B",
"7  c #72461C",
"8  c #78471C",
"9  c #764A1D",
"0  c #7C4D1E",
"q  c #7E501F",
"w  c #5D4126",
"e  c #5D4229",
"r  c #664424",
"t  c #6B4623",
"y  c #674927",
"u  c #6C4925",
"i  c #64462B",
"p  c #69472A",
"a  c #66492C",
"s  c #6B4A2B",
"d  c #714621",
"f  c #734A23",
"g  c #7C4D21",
"h  c #724D2B",
"j  c #7B4F28",
"k  c #6E502C",
"l  c #7D5125",
"z  c #73512F",
"x  c #7D542B",
"c  c #634731",
"v  c #664830",
"b  c #6B4D31",
"n  c #714F31",
"m  c #6F5033",
"M  c #745333",
"N  c #7B5633",
"B  c #7D5934",
"V  c #765539",
"C  c #7D5B3A",
"Z  c #814E1F",
"A  c #80501F",
"S  c #814E22",
"D  c #825222",
"F  c #8B5725",
"G  c #8A5825",
"H  c #82562B",
"J  c #8A5729",
"K  c #85592C",
"L  c #8B5B2D",
"P  c #915F2E",
"I  c #825630",
"U  c #835B33",
"Y  c #895E34",
"T  c #835E3A",
"R  c #8A5E39",
"E  c #925F30",
"W  c #8E602F",
"Q  c #92602F",
"!  c #9B622B",
"~  c #876037",
"^  c #8B6135",
"/  c #86613C",
"(  c #8A613B",
")  c #946232",
"_  c #996432",
"`  c #93653A",
"'  c #96693D",
"]  c #9A6A3F",
"[  c #805F40",
"{  c #846141",
"}  c #8B6542",
"|  c #8D6945",
" . c #8E6B49",
".. c #926741",
"X. c #946A43",
"o. c #9B6D42",
"O. c #976F4B",
"+. c #9B6E49",
"@. c #9D7145",
"#. c #95714B",
"$. c #9D734A",
"%. c #9F784F",
"&. c #9D7752",
"*. c #9F7851",
"=. c #A07145",
"-. c #A1754B",
";. c #A5794E",
":. c #AB7D4F",
">. c #A37751",
",. c #A57B52",
"<. c #AA7D53",
"1. c #A67C59",
"2. c #AC7F59",
"3. c #AC8156",
"4. c #AE8359",
"5. c #AF885D",
"6. c #B58455",
"7. c #B88656",
"8. c #B68857",
"9. c #B98957",
"0. c #B2865C",
"q. c #B98659",
"w. c #B5895C",
"e. c #BE8A5A",
"r. c #BC8C5B",
"t. c #BF8F5E",
"y. c #BC8B5B",
"u. c #BE905F",
"i. c #B38760",
"p. c #B78A61",
"a. c #B58962",
"s. c #BA8B61",
"d. c #BF8E61",
"f. c #B98D65",
"g. c #BE9160",
"h. c #C18E5D",
"j. c #C2915E",
"k. c #C7945F",
"l. c #C3905E",
"z. c #C8935F",
"x. c #C28F60",
"c. c #C39362",
"v. c #C29162",
"b. c #C59263",
"n. c #C79363",
"m. c #C59261",
"M. c #C69364",
"N. c #C39564",
"B. c #C59564",
"V. c #C59362",
"C. c #C99563",
"Z. c #CB9662",
"A. c #C89264",
"S. c #CA9664",
"D. c #CB9765",
"F. c #C99766",
"G. c #CB9767",
"H. c #C89565",
"J. c #C99664",
"K. c #C59867",
"L. c #C89963",
"P. c #CA9867",
"I. c #CB9966",
"U. c #CA9865",
"Y. c #CD9967",
"T. c #CC9866",
"R. c #CE9B66",
"E. c #CC9965",
"W. c #C59668",
"Q. c #CA9768",
"!. c #CF9B69",
"~. c #CC9A6A",
"^. c #CB9C68",
"/. c #CD9E6A",
"(. c #CE9B69",
"). c #D19D6B",
"_. c #D19E6A",
"`. c #D19F6C",
"'. c #D29E6C",
"]. c #D09C6C",
"[. c #D09D6B",
"{. c #D3A16E",
"}. c #D4A16C",
"|. c #D5A16F",
" X c #D6A26E",
".X c #D1A068",
"XX c #D6A270",
"oX c #D7A270",
"OX c #D7A371",
"+X c #D6A271",
"@X c #D8A371",
"#X c #D9A472",
/* pixels */
"T $.$.$.%.-.>.>.;.;.,.,.,.<.<.<.3.3.3.3.4.4.0.4.4.4.0.0.0.5.0.0.0.0.0.0.0.0.0.0.4.4.4.4.4.4.3.3.3.1.,.,.,.,.,.>.;.;.-.%.$.$.$.$.",
"C $.-.-.-.-.,.,.;.,.,.3.0.d.B.Q.)./.).).).}.}.}.}.OXOX@XOX@X@X@X#X@X@X@XOXOXOXOX}.OX}.}.`.`.`.).~.^.Y.Y.P.H.C.n.k.n.n.j.j.t.e.y.",
"C -.-.-.-.;.;.,.,.,.,.<.<.<.<.<.<.4.3.3.<.3.0.0.s.c.~.`.}.OXOX@XOXOXOXOX}.}.{.}.}.`.`.).).).~.H.M.M.M.n.n.c.t.c.d.0.6.<.;.-.$.$.",
"C -.-.o.x R -.;.;.;.,.;.-.,.<.<.<.<.<.<.3.3.3.3.3.3.4.4.4.4.4.4.1.3.0.p.N.~./.).).).).`.~.~.~.Y.C.n.y.6.;.,.,.,.,.;.-.x I -.-.-.",
"B @.$.x J J X.-.-.o.$.$.$.,.,.,.,.<.<.<.<.<.<.<.<.3.<.<.<.3.3.3.3.3.3.3.2.3.3.<.<.<.<.<.<.<.<.<.<.;.,.,.-.$.+.+.;.-.x J J B -.$.",
"N o.o.G J J ~ -.-.-.-.-.;.;.;.;.;.,.,.;.,.,.,.<.<.<.<.<.<.<.<.<.<.<.<.<.<.<.<.<.<.<.<.:.,.<.,.,.,.;.-.-.>.-.-.-.-.-.l J J x @.o.",
"N ] o.' l U o.@.$.$.-.-.-.-.-.-.-.-.-.-.<.c.P.P.H.H.P.H.Y.~.Y.Y.Y.Y.Y.H.B.x.y.0.3.<.;.-.-.-.,.-.-.-.-.-.-.-.-.-.@.$.@.x x o.o.o.",
"M ] o.] o.o.o.o.o.@.@.$.$.-.$.-.6.c.n.n.n.H.H.H.C.H.H.P.H.P.H.P.H.P.H.H.H.U.H.H.H.P.C.A.C.n.n.n.e.;.@.$.$.=.@.$.@.o.o.o.o.] ] ] ",
"p R Y R R R R ~ ~ ( R / T -.<.<.<.<.3.3.<.3.3.3.4.4.4.4.0.4.4.4.4.0.4.4.4.4.3.4.3.3.3.3.<.3.3.<.<.<.<.<.#./ / ~ ( ( ~ Y / R R Y ",
", e w w 2 a a c i e & + . . . . .   . o . . . . # & & & # . . X . . # & # & & & & & & X . . o o . . & & & & & @ i i 1 1 1 1 s b ",
"3 i e e e s b a a i & # o o o o o   o o o o o o & & & & & o o . . o O & & & & & & & # . o . o o o o & & & & & @ a a 2 = w e m M ",
"3 i i i e a m b b a & * . o . . .   o o o o o o & & & & & o o . o o o $ & & & * & & & . o o o o o o & & & & & @ a b w 2 i b V V ",
"e a a v i a V M n s N N p a a i a < y p p p a s B C C T T a a a n n M N C C C C T T T e s a a s a a B B C C C 2 b m i i i V C C ",
"e b b a v a N V M b N N N a a i i = y p y y p p B B C C T s a y s n M z C C C C T T / e s a a s i M B B B B T w M M i i a C C { ",
"e V M m n s C C B M N N N a a y y = r p p y y s B T T T T s s a s h z s C C C T T R R e s a a y i B B B B T T e N C a s b { } } ",
"V V V V M m / T T N N N N s a a p & r y p p p M C C T R R s s s s h z n T C R T R / R w s a a a y B B B U T T e C T s z M | | X.",
"C C C N V M { / / N N N B B a a p & r r y r p B T T T T / s p y s h h n T T R T T / / w s s a p i B B B U U T e / { z M N } #.O.",
"[ } T C C N C | ( C N N B U N a y & 5 r r y y U U U T U C p p s s h h k U R R / / / / w u s a p i B B U U U T i ( } M V C T $.%.",
"{ >.{ T T B N ....T N N B B U h s @ 5 5 r r s U T R R R z p s p u s h h R R / R / / / w u s s p h U B U U U U i ....V C T / >.,.",
"} <./ { R B B X.X./ N N B U B B z # 5 : r r B U R R R R t p p y s s h h R R R ( ~ / / w u s y s N U B U R U T 2 X.X.B T / } %.<.",
" .3.$.} / R R o.o.( B x U U U U U & : 5 5 r U U T R Y / t p t p u u h h R R R R / / ( i s u s y U U U U U U B 2 o.$.B / | |  .0.",
" .0.0.X...| ( R =.| x B N U U U U & : : : Y U U U Y Y U 6 t t p u u u h R R R Y / ~ ~ w u u p i U U U U U R - w -.;.( | X.O.$.,.",
"#.p.w.O.X...( ( +.X.N B U U U U U & : ; ; Y Y U Y Y Y u t t t p u u h f R R ~ ~ ~ ~ ( w h u u p N U U U U p - w ;.;.( X.+.$.%.,.",
"$.g.r.0.+.X...' ( o.x B B U U U U & ; ; u Y Y R Y Y / 5 6 6 t p t u u u Y R ~ R ^ ~ ~ = u u p p B B U U U : - i :.<.X.o.%.>.1.1.",
"&.B.c.d.$.o.X.X.' ( I U I U U H U & ; % U Y Y Y Y R Y 5 5 6 t t t u f f Y Y R ~ ~ ^ h = u u p h B U U H x : - r <.6.$.$.-.,.1.4.",
">.~.C.n.$.@.o.X.' U H U U U U U U # ; N U Y Y Y Y R z 5 5 5 t r t u u f Y Y Y ~ ^ h h = u u p x U U U U t ; : y 6.0.,.-.,.<.4.0.",
",.`.Y.H.2.$.$.o.] Y H U U U U U U * t U U Y Y Y Y ~ : 5 : : 6 r u u u f Y Y ^ ^ N h h 1 u p t x U U U U : ; - y 7.e.y.;.<.4.0.a.",
"1.).Y.C.h.-.$.o.] Y H U U H U H U # U U U Y Y Y Y Y : ; : : 5 5 u u u f Y Y R ~ h h h = u u t x H H U U : - % y 7.e.h.;.<.0.i.f.",
"1.).~.H.n.-.-.o.o.^ I H H U H U U y K U U U Y Y Y N : : : : 5 5 u u u u Y Y ^ f h h h & u t t H U H I U - - - y 9.e.x.<.3.0.p.f.",
",.`.~.D.n.-.$.o.o.R t H H H K H H y K U U Y Y Y Y : 5 5 5 6 5 5 6 u 6 t Y Y f f f f f & u u t H H H H H - - % i y.y.j.-.4.0.p.f.",
",.`.~.H.n.-.$.o.] R t f H H H K K y K U U Y Y Y Y 6 5 5 5 5 5 : 5 6 6 u Y U f f f f f = u t t H H H H H - - % y 8.y.c.<.4.0.p.f.",
"1.).Y.H.M.-.-.o.] R 6 6 H H H H K p U U U Y Y Y f 5 5 5 5 5 5 5 5 6 6 x Y 6 d f f f f & u t t H H H H H - % % y 8.t.n.t.3.4.w.f.",
"1.).~.B.n.,.-.o.] ~ 5 5 u H K H H p K K U L L Y 5 6 6 5 6 5 6 5 6 6 6 Y L d d d f f f & u t 6 H H H H H ; % % p y.t.c.B.3.0.w.f.",
"1.`.~.M.B.7.$.o.] ^ : : : H H H K t L U U L L L 6 6 6 6 6 6 6 5 6 6 5 Y f 6 d 7 f f f & u t 6 H H x H H u % % p 8.y.c.B.3.0.w.f.",
",.`.~.c.n.h.$.o.] ~ : ; : H H H H t K U U L Y x 6 6 6 : 6 6 6 5 6 6 6 L 5 6 6 7 7 f f & t t 6 H H H H H l % % p y.y.l.n.<.0.p.f.",
"1..X~.c.B.l.-.o.] R ; ; ; H H H H 6 L L K K L 6 6 6 6 5 7 6 6 5 6 6 H Y 6 6 6 6 6 7 7 # t 6 6 J H H H H H ; ; p y.y.j.n.3.0.p.f.",
"1.`.Y.c.n.j.o.o.] Y ; ; ; H K K L u K J K K Y 7 6 7 7 5 7 7 7 6 7 6 Y Y 6 7 7 7 7 7 7 # 6 6 5 K K K K K K 6 ; s 7.y.h.n.H.4.i.f.",
",./.Y.x.n.x.@.o.] R ; ; ; K J K J u J K K L K 7 7 7 7 > 7 7 7 6 7 7 L L 7 7 7 d 7 6 7 # 6 6 : K K K K J J K ; p 0.y.t.n.H.0.0.a.",
"1./.Y.x.n.h.;.o.o.R ; ; ; x J J J u K J K J j 7 7 7 7 6 7 7 7 6 7 H L L 7 7 7 7 7 7 7 # 6 5 : L J J J J J J ; p 7.e.h.c.H.!.0.f.",
"1.).Y.x.B.t.<.] ] Y : : : g Y L L u L L L L 9 7 9 7 9 6 7 7 9 6 9 L L l 9 7 9 9 7 7 7 # 6 6 : K L L L L L L L s 7.y.y.n.H.~.0.p.",
",.`.H.x.n.h.7.o.] R : ; : f L L L f L L L L 7 7 7 7 7 6 7 7 9 7 7 L L f 7 7 7 7 7 7 7 # 5 : : K L L L L L L L h 7.e.e.j.H.Y.).p.",
",./.H.x.n.t.y.] ] Y ; ; ; f L L L f L L L L 9 9 9 d 9 6 9 9 9 7 g L L 7 9 9 9 9 9 9 7 # > 5 ; l L L L L L L L z 7.y.y.c.H.Y.~.c.",
",.~.H.t.n.t.e.o.] Y > > > 7 L L L f L L L L 9 9 9 7 9 7 9 9 f 7 Y L L 7 9 9 9 9 f 9 f # 5 > > f L L L L W L W z 7.7.e.j.C.Y.~.).",
">.H.C.t.l.t.y.o.] Y 5 5 > 6 P P L f L P Q L 9 9 9 7 9 7 9 9 9 6 P Q L 9 9 9 8 9 9 9 9 # 5 > 5 5 L P L P Q W P t 6.7.e.h.n.C.Y.~.",
">.B.t.y.c.e.y.o.] Y > 5 5 6 Q Q Q f Q Q Q ) 9 9 9 7 8 f 9 9 f l ) Q ^ f 8 9 9 9 9 9 8 # 5 5 5 5 E Q Q Q Q Q Q t -.7.e.t.n.c.U.~.",
">.B.C.t.h.e.y.' ] R 6 5 5 6 Q ) Q f Q ) ) Q 8 g 8 9 8 8 0 8 0 L Q ) L 8 8 0 8 8 8 8 8 % 5 > 5 5 Q ) ) Q Q Q Q u ` 7.y.y.c.n.C.Y.",
",.n.C.h.h.e.7.' ] Y 6 6 5 6 Q Q ) f ) ) ) ) 8 8 8 7 8 7 8 0 8 L Q ) L 0 0 0 8 8 8 8 0 ; 5 6 6 6 J Q ) ) Q Q ) u ` <.7.e.c.c.n.H.",
"*.H.B.y.h.y.7.' ` U 5 6 6 > ) Q ) j ) ) ) ) g g g 9 g 9 g g g W ) ) P 0 g g g g g g 0 : 6 6 6 > f ) ) ) ) ) Q u ` ` 7.y.t.g.H.C.",
"%.B.n.t.t.y.7.' ` U 6 6 6 6 Q ) ! g ) ) ) ) L g 0 g g 8 g g g E ) _ Q 0 g g g g g g G : 6 6 6 4 4 ! ) _ ) ) Q u ` ` 6.9.y.h.h.C.",
"*.B.n.j.t.y.7.' ` U 4 6 6 6 _ _ _ j _ _ _ ! _ g S g 0 9 S 0 g ) _ _ ) 0 0 S 0 g 0 g ! : 6 6 6 6 6 _ _ _ _ ) _ u ` ` =.7.y.h.y.H.",
"$.n.n.h.y.7.7.' ` U 6 6 7 6 _ _ _ j _ _ _ _ _ D 0 0 0 8 0 0 g ) _ _ ) 0 0 0 0 0 A 0 ! ; 6 7 7 6 6 G _ _ _ _ _ u ` ` ' 7.e.y.y.n.",
"{ <.h.h.y.7.7.' ` H 7 7 7 7 _ _ _ j _ _ _ _ _ _ g 0 0 0 0 0 S ) _ _ _ 0 0 0 0 0 Z D ! 5 6 7 7 7 7 6 _ _ _ _ _ u ^ ` ` 6.7.e.y.l.",
"T -.t.y.y.7.6.' ` H 6 7 7 7 _ _ _ l _ _ _ _ _ _ _ 0 l q 0 D D ) _ _ _ D 0 0 Z Z q F ! 5 6 7 7 7 7 7 P _ _ _ ! 6 Y ` ` 6.7.9.7.y.",
"T -.-.e.9.7.6.` ` H 7 7 7 9 _ _ _ j _ _ _ _ _ _ _ ) 0 0 0 0 D ) _ _ _ D Z 0 Z Z 0 F ! 5 6 7 7 7 7 6 6 _ _ _ _ u Y ^ ` 6.7.7.y.y.",
"T -.$.y.7.6.3.` ` H 7 6 7 g _ _ _ l _ _ _ _ _ _ _ _ ) Z l 0 A ) _ _ _ g 0 0 A A 0 D ! 5 6 6 6 7 7 7 7 _ _ _ _ u Y Y ` <.6.7.9.y.",
"T -.@.6.7.6.6.` ` I 7 7 6 J _ _ _ l _ _ _ _ _ _ _ _ _ _ g D D ) _ _ _ g S D D D D D ! 5 7 7 7 6 7 6 6 g _ _ _ u L Y ` :.6.6.0.y.",
"} 6.0.0.0.y.y.w.y.y.r.t.u.g.c.g.c.c.N.N.N.B.B.N.B.B.K.K.K.K.K.K.W.K.K.B.P.4.%.%.-.$.$.$.$.$.+.o.+.X.X.' X.' ' ' ' ` ^ ( ^ Y Y Y ",
"X.7.6.6.<.:.y.h.n.n.M.C.H.H.C.H.H.Y.Y.Y.~.~./.).).).)./.).).`.).).).).).).).).y.-.;.-.-.-.-.-.$.@.o.o.o.o.o.o.] ` ` ` ` ` ^ Y Y ",
"N o.o.X.x ( $.$.-.-.-.-.-.-.-.,.6.r.B.H.H.Y.Y.~.~.Y.~.~.~.~.~.~.~.~.~.~.~.Y.~.~.E.E.P.B.;.o.o.o.o.o.o.' ' ' ` ` ` ` Y f ` y.7.7.",
"M ] ] x J J ' @.@.@.$.-.$.-.-.-.-.-.-.-.-.,.l.Y.H.Y.Y.Y.c.c.n.n.n.n.n.n.c.l.n.n.x.j.c.t.h.y.C.n.c.7.;.X.` ' =.6.y.y.Y J J ( 7.7.",
"z ' ' J J J U o.o.o.o.o.@.@.$.@.-.-.-.-.-.-.$.-.-.j.P.C.H.P.Z.U.U.P.U.U.P.H.C.C.K.C.H.C.B.M.n.n.n.c.c.j.h.h.t.y.y.e.l J J H 7.7.",
"h ` ` j J G ' o.] X.o.X.o.o.o.o.@.o.@.@.@.@.@.@.@.@.o.<.B.H.C.H.H.H.H.C.C.C.n.n.t.t.t.t.y.y.y.y.y.y.y.y.7.y.e.y.e.y.' J J $.6.7.",
"h ` ` ` Y ` ` ` ` ' ] ] o.o.o.] o.o.] o.] o.o.o.o.o.o.o.o.o.t.B.B.n.z.C.n.n.n.n.B.n.n.l.h.c.j.h.h.h.h.t.y.e.e.y.y.7.7.<.:.6.6.6.",
"u ^ ` ` ` ` ` ` ` ` ` ` ` ` ` ] ] ] ] o.] ] o.] ] ] ] ] o.o.o.' o.t.n.n.n.n.n.c.c.n.c.j.h.h.h.h.t.y.e.e.e.e.y.7.7.q.7.7.6.6.6.6."
};
