/* XPM */
static char *_a82626b974d43e0dbf6e53cbe486902VBb7NsY5DCw8Xltp[] = {
/* columns rows colors chars-per-pixel */
"64 64 214 2 ",
"   c #1E1D19",
".  c #1B1A16",
"X  c #201F1A",
"o  c #231F14",
"O  c #24221D",
"+  c #2A261F",
"@  c #322C1F",
"#  c #3C341D",
"$  c #262521",
"%  c #292722",
"&  c #2C2A24",
"*  c #2D2C29",
"=  c #312D24",
"-  c #322F29",
";  c #343127",
":  c #34322B",
">  c #39362D",
",  c #3D392E",
"<  c #3D3523",
"1  c #363531",
"2  c #393730",
"3  c #3E3B32",
"4  c #43371D",
"5  c #423C2E",
"6  c #463C26",
"7  c #423E34",
"8  c #413E38",
"9  c #5B4A29",
"0  c #56452A",
"q  c #454136",
"w  c #4A4435",
"e  c #46433A",
"r  c #4A463B",
"t  c #4D4A3D",
"y  c #4F4A37",
"u  c #524C3D",
"i  c #594E3C",
"p  c #57513E",
"a  c #4E4025",
"s  c #62492D",
"d  c #66542E",
"f  c #6C4E32",
"g  c #674A31",
"h  c #6E5233",
"j  c #6D5A30",
"k  c #735436",
"l  c #745C32",
"z  c #785738",
"x  c #7C5A3A",
"c  c #7C5B37",
"v  c #704E33",
"b  c #7C6534",
"n  c #4E4C41",
"m  c #464540",
"M  c #524E42",
"N  c #555144",
"B  c #5A5445",
"V  c #5E5947",
"C  c #565449",
"Z  c #5A564A",
"A  c #5D594C",
"S  c #57584A",
"D  c #5E5C51",
"F  c #625946",
"G  c #625C4D",
"H  c #665944",
"J  c #625E51",
"K  c #685E52",
"L  c #67614E",
"P  c #69614E",
"I  c #73634A",
"U  c #78674C",
"Y  c #666153",
"T  c #6A6455",
"R  c #6E6956",
"E  c #666358",
"W  c #6B665A",
"Q  c #6E6A5B",
"!  c #736D5C",
"~  c #776C56",
"^  c #76715E",
"/  c #78715F",
"(  c #6F6B60",
")  c #736E62",
"_  c #757162",
"`  c #7A7464",
"'  c #7E7865",
"]  c #777368",
"[  c #7A756A",
"{  c #7E7A6B",
"}  c #7F7D70",
"|  c #825E3D",
" . c #85623D",
".. c #876B38",
"X. c #8C723A",
"o. c #93743C",
"O. c #997A3D",
"+. c #8B6441",
"@. c #8E6A46",
"#. c #856340",
"$. c #956B45",
"%. c #906E4B",
"&. c #9B7544",
"*. c #9D7A42",
"=. c #977045",
"-. c #877557",
";. c #947B5A",
":. c #A37B47",
">. c #A27F56",
",. c #817967",
"<. c #837C6C",
"1. c #857C6B",
"2. c #847F71",
"3. c #94805D",
"4. c #A98645",
"5. c #B28A4C",
"6. c #B0894A",
"7. c #B6914A",
"8. c #BD954D",
"9. c #B89347",
"0. c #AE8C5F",
"q. c #86816E",
"w. c #89816E",
"e. c #9B8462",
"r. c #858172",
"t. c #8B8473",
"y. c #8E8976",
"u. c #8B867A",
"i. c #8E897B",
"p. c #918976",
"a. c #938C7B",
"s. c #958A78",
"d. c #95917D",
"f. c #9B927E",
"g. c #B49569",
"h. c #B1926A",
"j. c #C49B4E",
"k. c #C3994F",
"l. c #CA9E53",
"z. c #C49951",
"x. c #CCA24F",
"c. c #CDA353",
"v. c #D3A554",
"b. c #D4AA55",
"n. c #DBAD56",
"m. c #DCAE58",
"M. c #D4A95B",
"N. c #DDB056",
"B. c #DEB058",
"V. c #E3B55A",
"C. c #E7B85C",
"Z. c #ECBC5E",
"A. c #E1B457",
"S. c #F0BE5F",
"D. c #C29E6E",
"F. c #D9B267",
"G. c #CEAC7C",
"H. c #C6A474",
"J. c #D3B17E",
"K. c #CDA66E",
"L. c #EEBE61",
"P. c #E3B96F",
"I. c #F0BF60",
"U. c #E2B975",
"Y. c #F0C05E",
"T. c #EFC15F",
"R. c #EFC162",
"E. c #F2C362",
"W. c #FFCB66",
"Q. c #F2C46D",
"!. c #FCCA66",
"~. c #ECC37B",
"^. c #F6C974",
"/. c #F6CB7D",
"(. c #FDCE7A",
"). c #F9CA73",
"_. c #938D81",
"`. c #969182",
"'. c #9B9583",
"]. c #9E9984",
"[. c #9C998B",
"{. c #9A9589",
"}. c #A29A85",
"|. c #A29C8B",
" X c #A59A86",
".X c #A49E90",
"XX c #A6A18D",
"oX c #ABA38D",
"OX c #ACA88D",
"+X c #A6A192",
"@X c #ABA492",
"#X c #ADA892",
"$X c #ABA899",
"%X c #B2AB94",
"&X c #B3AC9A",
"*X c #B5AA95",
"=X c #BEB39D",
"-X c #B6B196",
";X c #B9B4A5",
":X c #B5AFA1",
">X c #D5B482",
",X c #DEBA86",
"<X c #DCB785",
"1X c #E3BE87",
"2X c #E8C38B",
"3X c #F9CE84",
"4X c #F5CC87",
"5X c #FCD28C",
"6X c #FAD086",
"7X c #EDC991",
"8X c #F4CD93",
"9X c #FCD395",
"0X c #FED699",
"qX c #FED89A",
/* pixels */
"r.[ C u._._.[ {.i.`.] _.i.i.r.|._.Y _.+X+Xu.[.[.|.2.a.a.i.{ [.i.W { `.`.u.{ u.u.] Q { _ Q } ] J Z [ [ ) J ) Q E C E Z Z J D M 2 ",
"{.t.E [.+X+Xr.|.+X+X<.|.:X&Xu.:X$X_ +X;X;X|.|.;X&Xi.{.;X:X2.:X+X{ u.$X$X+X[ .X{.2.) {.{.[ _.u.Q E u.u.u.J 2.{ ) Z ] [ Y ( Q A 8 ",
"r._ J '.a.i.) 2.|..X{ u.+X+Xr.|.a.! +X@X|.a.2.&X&Xi.t.+X$X{ |.u.! i.].u.i.Y _.'.<.W 2.a.) r._ J Y <.) ) M _ ] ) N J ( D E D M 7 ",
"! Q ! ! T G B A ! ! { u.i.r.E y.'.].].t.y.y.T ! ' a.a.a.! A ' <._ ,.! T A M T T W _ ` ] M J T J T A N r 7 M N M A A D e e n t M ",
"<.<.,._ ' T V B ^ ' `.@X@Xy.! t.=X=X=X}.f.w.T p.%X|.'.r.Y R a.s.a.,.<./ A B G Q [ `.a.r.A ! ] _ T T Y u e y B A ) ) Q t M A Z N ",
"^ ` ,._ ! T G V G { r.{.d.' ! ! oX=X*X Xa.! ' }.:X&X'.[ ! ! ' w.t.w.` T L A u ! _ <.2.! Z A ! ! ! J B u r 7 M A J W Z r 7 N N N ",
"G G B N B V G N A Y Y Q Q T ! ,.1.y.a.}.y.^ <.a.+X#Xt.t.q.! T ~ G V B A V Z N Z A A D Z Z M A i r r t r r q e r r r e 7 7 r 7 , ",
"N B A A G T T Y G G G J T ! ! ! ! ! / _ _ / ^ _ { { ] ` ! ^ Y G Y L G Y T L A V B N Z Z G B t M M t M N M r r q 7 q q r q , 3 3 ",
"1.! T T ,.R T G ! ! ! / ' y.].}.'.,._ ! ! ' ,.,.R ! ! ' w.f.d.a.! R <._ T G Y T T Y Y ! ` ' ` A B J J B u M M M M t N A A A t q ",
"d.f.G y.p.T T N ` <.T ' #XOXOX-X%Xq.Y t.a.#X%XoXw.! ' -X%XoXoX#X,.,.}./ T B G ' T G q.a.t.t.y.! A ' T N t r A N r J ! W E W Y 7 ",
"t.'.A y.T F N Y }.f.G Q XX%X%X].'.! L w.}.*X*Xd.<.! ' -X%X%Xa.OX' y.,.P p B ,.a.L Z ` a.a.` t.Q Y T i q q G _ B 7 C ! Q Y E Y 7 ",
"_ { M F G y G ^ t.! F G Q f.'.p.<.E G ! }.oX%X'.f.Y ! |.oX'.1.d.Y F T p N T ' ! N N N Q <.Q _ A t N y 7 M G G w 7 3 M J Z Z N , ",
"! D C N N G ' p.w.F V Z J p.d.y.{ D T A w.f.s.w.y.G W <.a.d.q.` J A N A ! w.w.P i M n Y ` ! Y M r q r N T W B 5 3 3 r D Z n 3 1 ",
"A C C M N T _ q.' N G A Q r.{ Q W W J V R ' T G G G Y ] t.{ ] D Y Z i T ! ' <.V u N N Q W Y M M r q u V G T u 5 3 7 M N n 7 3 3 ",
"Z N N J N p N p N N R A T W W W Y Y ! T Y Y Y T G ! T W W T T J A Y G p p u p u A A N Z Z N M t n M q q 7 q 7 q r 3 e e 7 3 > > ",
"J J G G N N G T T Q Q T T ! ! ! / / / _ _ _ _ ^ ! ! ! ! ! ! ! Q T ! A B A Y J J J G Z A G G A Z Z u r r u n t u t e r r e r e q ",
"G 1.p.t.T T G G <.y.a.|.2.] ! |.#X Xa.f.f.p.! r.XX].|.|.' ! T w.f.'.' T G A T 1.<.u.<.W A B T ' ,.T M u r M E Y Q W C e t W Y A ",
"! ,.p.s./ P V R w.].|.'.{.i.! oX#X%XoX X X X! ` +X@X+X+Xt.R ! <.f.f.p.L A A _ t.a.u.r.r.B V T ' ' _ B u e A W ) ( E W t t T T T ",
"_ ` 1.1._ T B Y ^ ` a.|.|.y.R }.#X#X#X'. X}.T T { |.oXXX_ G 1.w.t.s.,.! G V Q ! _ u.u.t.N T ! ! ' T A u q N Z Z Q ( Q n r T T Y ",
"' ' ' ^ ` T B B ! _ i.|.|.t.W t.+X#XOXa.s.q.G ' '.'.'.r.J Y t.y.w.' ' ! N M F R _ a.i.2.Z R ! ! T Y G t 7 y N C Q Q W n 7 Y T Y ",
"! _ ' ! R G A N A ` { `.a._ T T ].oX|.p.<.T R a.|.].r.) Y T ` 1.1.,.^ T A N t T ) { 2.Q N G Q Q T G B t r , n Z Y W Z e 3 M Y Y ",
"G A B N N N B n N J Y W T Y J ! _ t.t.p.` J ! 1.'.].<._ _ T G T G A N V B M t B A A A Z N u V N u r r q q 3 q t r r e 7 3 r t N ",
"t t M M N G Y Z N N M N A G Y Y Y G T T T G J Y _ _ Q ^ W T B N N N N G Y A M t t t M t A M r e w q r M t 7 7 , > 3 3 q 3 7 3 , ",
"Q J G A T G G B T T T Y T _ { ' ` Y Y A A G Y G Z G J G Q ' ' ` J G T L G B G G G A A G E W E M N N N u r t t t r r t M M n e 3 ",
"t.q.N _ w.L L u T T G T p.a.d.].'.! B T ! 1.t.t.R G T d.d.a.f.`.Q T p.! P i B T A A ! <.{ <.<.Y M ! T M t q M r e N E J Y Y A 3 ",
"<.t.N ,.G N u Z t.w.N J d.f.d.t.t.G M ! ,.a.a.' R G W '.'.d.<.f.! ' ! V y M Q t.A M ^ q.<.! { T A Y y 7 7 N Q M > N T Y Z J e > ",
"W ` r B V q M G { T u N Y q.t.` ! N M G t.p.a.<.` B G p.a.t.! q.Z A G y t B ! Q u t n Q _ Y Q C t u q > q B A q , 3 M A N N 3 > ",
"T C r r y r T ' ^ N u t M ` ,.] W n N t ! { ,._ ` M Z ! ' ,.! Q M t u t Z _ _ A y r e Z ! Y A m q 7 3 q A G M 5 , > 3 Z M M 2 : ",
"N n n e t A ! _ R y u t Z _ Q J A C N r A ! G u N u M Y ] Q W C C t r N T ! ! i w r r J Y A r m 7 , q N A G r > > 2 r n e 3 1 : ",
"M e e M q u u u i q Z t Z A A A M M Z M u u t t t B N Z A Z A n n M y w u y N q t n r N M t e 8 7 q , q 5 q , > 3 > 8 3 3 > : : ",
"B B M t r r M N N A A N Z G G A G G G G G G G G G G G A G G M t u q M B M M M M B N N M M M t u t t t q q 7 7 q q 7 7 7 7 7 , > ",
"t T _ _ N N u N A Y Q <.E Z A ,.1.' T W W T A T { ) ` ` N u -.G.,XH.;.I p r t Q W W ) C n Z ! T Z B B M r q Z C N Z r 3 3 3 t M ",
"G ! _ ' G N t B ^ r.r.2.[ _ A t.p.p.1.1.1.1.G T u.u._ Y -.G.9X0X0X0X0X8X2XH.;.P G Y ) Q t J ] ) ! T T T M q J Y Y D D 3 > e M N ",
"G K _ ) J N r N G T ] { r._ Z 1.t.t.t.,.1.,.Z M J T ;.>X0X0X0X0X0X0X0XqX0X0X0X9X>Xh.~ N q N _ ) ! T T T M 3 e A Y J C > 3 r r M ",
"T T Y J Y N r w A A _ 2.r.) Z ) t.t.u._ _ ! q u ;.,X9X0X0X9X9X0X0X0X0X0X0X0X0X0X0X0X9X2Xh.I Z J ! T B J q 7 M Z D C 7 > e t r e ",
"G T T G V i r q t J W { ` G M N 1.t.1.! G t -.J.qX9X~.F.m.E.W.W.W.W.(.5X0X0X0X0X0X0X0X0X0X9XJ.e.F N M r , n D D M e 3 > > r r r ",
"N N M y t t e q e N C A S N M Z Y ` W G U G.9X0X~.M.b.b.I.W.W.W.W.W.W.W.(.0X0X0X0X0X0X0X0X0X0X0X,Xe.F 2 3 M D D C 7 e > ; 3 , > ",
"3 , , , q t M 7 3 7 7 e e r M N N q H g.7X0X0X4Xc.z.8.5.z.z.l.v.C.E.W.W.W.).9X0X0X0X0X0X0X0X0X0X0X9X1X3.y 2 e n e e e > : & % % ",
"M t t t M t t t M M t t M Z A N N q <X0X0X0X0XK.:.$.$.$.$.$.$.$.$.:.v.!.W.!.4X0X0X0X0X0X0X0X0X0X0X0X0X0X<XU > : 2 : : 3 3 3 : > ",
"! E e Z ! N M 7 M M M M T ! ` { E -.9X0X0X0X0Xg.$.$.$.$.$.$.$.$.$.$.$.6.E.V.4X0X0X0X0X0X0X0X0X0X0X0X0X0X0X8Xh.7 - e N M N N e - ",
"T Q q T M q 7 7 T W q N ` ` ! J F 2X0X0X0X0X0X1X@. .#.+.+.+.$.$.$.$.$.$.5.F.0X0X0X0X0X0X9X5X5X5X0X0X0X0X0X0X0X>XH e C N t M t = ",
"Z Y 3 u r , 7 t T Z 7 q A Q C I >X0X0X0X0X0X0X0X2X>.x | | | |  . .#.#.@.K.9X0X0X0X0XP.Q.W.W.W.W.W.(.0X0X0X0X0X0X7XU q M e e e & ",
"N r 2 > , > t A Z 7 > > > B e.7X0X0X0X0X0X0X0X0X0X0X7XD.>.%.@.@.%.0.J.8X0X0X0X0X0XU.4.&.=.=.6.l.L.W.~.0X0X0X0X0X0X8X-.> 7 3 : % ",
"e 3 3 > , r C A q I ;.e.H.7X0X0X0X0X0X0X0X0X0X0X0X0X0X0X0X0X0X0X0X0X0X0X0X0X0X0X0XH.x x | | |  .$.l.P.0X0X0X0X0X0X0X8XI : - & % ",
"7 > 1 3 : 7 , w h.9X0X0X0X0X0X0X0X0X0X0X0X0X0X0X0X0X0X0X0X0X0X0X0X0X0X0X0X0X0X0X0X0Xg. .k k k z #.g.9X0X0X0X0X0X0X0X9XF.= % $ O ",
"7 7 7 q q ; i >X0X0X0X0X0X0X0X0X0X0X0X0X0X0X0X0X0X0X0X0X0X0X0X0X0X0X0X0X0X0X0X0X0X0X0X8X1XG.G.,X8X0X0X0X0X0X0X0X6XQ.E.b.= = = & ",
"M n r e , U 2X0X0X0X0X0X0X0X0X0X0X0X0X0X0X0X0X0X0X0X0X0X0X0X0X0X0X0X0X0X0X0X0X0X0X0X0X0X0X0X0X0X0X0X0X0X9X6X^.E.E.E.E.b.@ 3 > : ",
"J J Y A y M.^./.6X5X0X0X0X0X0X0X0X0X0X0X0X0X0X0X0X0X0X0X0X0X0X0X0X0X0X0X0X0X0X0X0X0X0X0X0X0X0X0X0X5X/.^.E.E.E.E.E.E.E.c.= e e e ",
"G J J A r 6.I.I.Y.E.E.Q.^./.3X6X9X9X0X0X0X0X0X0X0X0X0X0X0X0X0X0X0X0X0X0X0X0X0X0X0X0X0X9X5X3X/.Q.E.E.R.R.R.T.R.R.R.R.R.x.@ r e q ",
"Z A A J e ..Z.Y.Z.Z.Z.Z.Y.Y.Z.Z.Z.R.Q.Q.^././.3X5X9X9X0X0X0X0X0X0X0X0X0X0X0X5X3X/.^.Q.E.I.Z.Z.S.I.B.k.z.n.Z.L.Z.Z.Z.Z.k.+ e 7 7 ",
"7 Z A Z r 0 V.Z.Z.Z.Z.Z.Z.Z.Z.Z.Z.Z.Z.Z.Z.Z.Z.Z.Z.L.R.R.Q.Q.Q.Q.Q.Q.Q.Q.Q.R.L.Z.Z.Z.Z.C.C.Z.C.Z.l.c k k  .c.Z.Z.Z.Z.Z.7.O > 7 7 ",
"3 t Z M N > 8.Z.C.C.C.C.Z.Z.Z.Z.Z.Z.Z.Z.Z.Z.Z.Z.Z.Z.Z.Z.Z.Z.Z.Z.Z.Z.Z.Z.Z.Z.Z.Z.L.Z.Z.Z.L.C.C.V.c v k z | :.B.C.C.C.C.4.O & > 3 ",
"3 2 > 7 7 : o.Z.Z.C.C.C.Z.C.Z.Z.Z.C.C.C.Z.Z.Z.Z.C.c.V.C.C.Z.Z.C.C.C.Z.C.C.C.C.C.C.C.C.C.C.C.C.k.f k z x  .&.c.C.C.Z.Z.o.  % $ $ ",
": : : : : - 9 V.C.C.Z.Z.C.C.C.6. . .&.v.C.C.C.c.k f  .m.C.C.Z.C.C.C.C.C.C.C.C.Z.C.C.C.C.C.C.C.8.h k z |  .6.M.Z.C.C.Z.b O + O O ",
"n t 3 = > > < c.C.C.C.C.C.C.*.g h z | *.b.C.C.*.f k | c.C.C.C.C.C.C.C.C.C.C.C.C.C.C.C.C.C.C.C.c.z z x | +.c.A.C.C.C.C.s > > : O ",
"n e - & 3 q q *.C.V.C.C.V.8.s g k z  .$.8.A.C.&.k x &.n.C.C.C.C.C.C.C.C.C.C.C.C.C.C.C.C.C.C.C.V.:.x | $.8.n.V.C.C.C.n.0 : > & X ",
"7 2 & & > r e j V.V.V.V.V.&.9 f k x #.&.j.n.V.8. .:.l.B.V.V.V.V.V.V.V.V.V.V.V.V.V.V.V.V.V.V.V.V.m.7.6.l.m.V.V.V.V.V.x.6 : : O   ",
"3 - % % = q e 5 j.V.V.V.V.o.s f k | #.5.n.b.A.V.b.m.B.A.V.V.V.V.V.V.V.V.V.V.V.V.V.V.V.V.V.V.V.V.V.V.V.V.V.V.V.V.A.V.7.% % %     ",
"> * $ & O > 7 = O.A.A.B.A.4.g h z | $.v.n.m.A.A.A.A.A.A.A.A.A.A.A.A.A.A.A.A.A.A.A.A.A.A.A.A.A.A.A.A.A.A.A.A.A.A.A.A.o.O $ +   . ",
"% % % $ O + + O 9 b.B.B.B.c.z k z $.l.n.n.B.B.n.B.B.B.B.B.n.B.B.B.B.B.B.B.B.B.B.B.B.B.B.B.B.B.B.B.B.n.B.B.n.B.B.B.m.d O O . . . ",
"& % % = & & & = = 6.n.n.n.n.b.7.j.b.n.n.m.m.n.n.m.n.n.n.n.n.n.n.n.n.n.n.n.n.n.n.n.n.n.n.n.n.n.n.n.B.n.B.n.B.n.B.B.v.#         . ",
": & & & & & & = % s O.4.8.c.n.n.b.n.n.m.n.n.n.n.n.n.n.n.m.n.n.m.n.m.n.n.m.n.m.n.m.m.n.n.m.m.m.m.m.m.m.m.m.n.l.7.4...o X X     $ ",
"7 7 7 3 7 7 > & 2 3 > > , < a j ..o.4.9.j.x.x.c.v.b.b.n.n.n.n.n.n.n.n.n.n.n.n.n.n.b.b.v.c.x.j.9.4.O...l 9 4 < = + % %     + & & ",
"e e e 8 8 e 3 * : e m e m 1 - 8 8 3 , > , 6 6 a s j l l b b ....X.X.X.....b b l l j s 9 6 6 , ; : = - - % $ * 1 : : : $ $ % * : "
};
