/* XPM */
static char *_c8d56ec0c5348a4f4d3378e28d81bafntZ5DwEiczokZ9h4[] = {
/* columns rows colors chars-per-pixel */
"64 64 222 2 ",
"   c #030303",
".  c #0B0504",
"X  c #0A0806",
"o  c #090708",
"O  c #0A0A0A",
"+  c #070808",
"@  c #1C0404",
"#  c #140D0A",
"$  c #150606",
"%  c #19130E",
"&  c #141312",
"*  c #1B1915",
"=  c #1D1C19",
"-  c #1A1514",
";  c #100F11",
":  c #2B0504",
">  c #240909",
",  c #380606",
"<  c #22130E",
"1  c #251A13",
"2  c #2D1D15",
"3  c #221E1A",
"4  c #251914",
"5  c #301F17",
"6  c #301F18",
"7  c #24211C",
"8  c #2B251D",
"9  c #2B271C",
"0  c #322117",
"q  c #332219",
"w  c #3C2B1C",
"e  c #38261A",
"r  c #1E1E21",
"t  c #272422",
"y  c #2B2622",
"u  c #2C2A24",
"i  c #2B2B29",
"p  c #322D25",
"a  c #3A2C23",
"s  c #332E29",
"d  c #342722",
"f  c #343126",
"g  c #35332B",
"h  c #3A362C",
"j  c #3D392E",
"k  c #3F3225",
"l  c #3D3A32",
"z  c #393532",
"x  c #490706",
"c  c #530305",
"v  c #5B0607",
"b  c #511716",
"n  c #670606",
"m  c #740505",
"M  c #7C0404",
"N  c #740709",
"B  c #691716",
"V  c #412E1E",
"C  c #42301F",
"Z  c #422D23",
"A  c #4B2922",
"S  c #443223",
"D  c #493524",
"F  c #4E3924",
"G  c #43342A",
"H  c #46392C",
"J  c #513A26",
"K  c #553C29",
"L  c #413D34",
"P  c #483C32",
"I  c #5A2B28",
"U  c #5C432C",
"Y  c #54402D",
"T  c #454136",
"R  c #484336",
"E  c #454239",
"W  c #4A453B",
"Q  c #4D493D",
"!  c #514B3E",
"~  c #564537",
"^  c #61462E",
"/  c #63482F",
"(  c #654A32",
")  c #6A4E32",
"_  c #66493E",
"`  c #6E5134",
"'  c #6C523A",
"]  c #725436",
"[  c #7B5A36",
"{  c #765738",
"}  c #76583B",
"|  c #785839",
" . c #785735",
".. c #6E502F",
"X. c #4D4A41",
"o. c #474741",
"O. c #524D42",
"+. c #594E46",
"@. c #565145",
"#. c #5A5446",
"$. c #565349",
"%. c #5B564A",
"&. c #5D594C",
"*. c #5C5847",
"=. c #5E5A51",
"-. c #625C4D",
";. c #645447",
":. c #7A5847",
">. c #635D51",
",. c #65604F",
"<. c #7D6248",
"1. c #666153",
"2. c #6A6455",
"3. c #6E6957",
"4. c #656158",
"5. c #6B665A",
"6. c #6E695B",
"7. c #726C5D",
"8. c #766353",
"9. c #77715F",
"0. c #6D6A61",
"q. c #736E62",
"w. c #786F60",
"e. c #767162",
"r. c #7B7464",
"t. c #7E7866",
"y. c #7B756A",
"u. c #7E7A6B",
"i. c #7E7B70",
"p. c #840303",
"a. c #8B0202",
"s. c #880708",
"d. c #910202",
"f. c #9A0404",
"g. c #801216",
"h. c #AB0303",
"j. c #A40507",
"k. c #B30203",
"l. c #BC0102",
"z. c #91332F",
"x. c #C20303",
"c. c #815E39",
"v. c #805E36",
"b. c #89423B",
"n. c #856139",
"m. c #896439",
"M. c #886236",
"N. c #886849",
"B. c #866D57",
"V. c #8D735B",
"C. c #94785E",
"Z. c #96765C",
"A. c #92704D",
"S. c #A1795D",
"D. c #837C6C",
"F. c #847967",
"G. c #9B7E62",
"H. c #947C65",
"J. c #837E71",
"K. c #8A7F71",
"L. c #85816E",
"P. c #89816F",
"I. c #9D836B",
"U. c #868172",
"Y. c #8B8473",
"T. c #8E8976",
"R. c #8B8579",
"E. c #8F8A7A",
"W. c #868178",
"Q. c #918776",
"!. c #918977",
"~. c #938C7B",
"^. c #908778",
"/. c #96907E",
"(. c #99927E",
"). c #AB8C6D",
"_. c #A58668",
"`. c #A68C73",
"'. c #B49475",
"]. c #BA9979",
"[. c #B99777",
"{. c #B29073",
"}. c #C29F7E",
"|. c #C5A17D",
" X c #938E82",
".X c #969284",
"XX c #9B9583",
"oX c #9D9985",
"OX c #9C968A",
"+X c #9E998C",
"@X c #A29985",
"#X c #A29C8B",
"$X c #A09785",
"%X c #B09D88",
"&X c #A6A18C",
"*X c #AAA48E",
"=X c #A6A192",
"-X c #AAA495",
";X c #AEA993",
":X c #ADA799",
">X c #ADA99B",
",X c #B2AD96",
"<X c #B2AC9C",
"1X c #B6B09D",
"2X c #B9B29C",
"3X c #B4B196",
"4X c #B5AEA1",
"5X c #BAB5A6",
"6X c #C5A483",
"7X c #CEAA86",
"8X c #CCAA88",
"9X c #D2AE8A",
"0X c #D1AC86",
"qX c #DAB48D",
"wX c #D6B18C",
"eX c #DDB793",
"rX c #E3BB93",
"tX c #E8BF96",
"yX c #C1BDAC",
"uX c #E9C097",
"iX c #ECC399",
"pX c #C4C0AE",
/* pixels */
"q.W.W.y.6.%.J.E.~..X.Xq.R.#X~.OX.Xr.R.OXE.U.XXR.#X+X XJ.&.R..X.X.X Xu.q..XJ.R.W.q.=.J.y.6.e.4.q.y.q.>.X.$.0.5.5.5.=.W 5.%.%.=.$.",
"J.OX X.Xu.4. X-X:X>X<XY. X4X=X-X:XE.#X5X5X1X-X.X5X4X:XOX4.#X>X4X<X>X#Xw.-XOX.X XW.q..XOX XR.6.W.R.i.y.=.5.y.i.u.u.q.X.q.0.4.4.4.",
"u.+X.X Xy.5..X-X;X>X<X~.W.4X4X<X<XD.~.4XyXyX5X.X5X5X:X~.q.#X<X<X<X>X-X2.-X-X+X+Xu.1. XOX.X X6.J.E.J.q.%.4.u.u.u.u.y.Q q.q.5.5.>.",
"y.OXR.y.y.2.#X-X=XXX-Xt.u.>X5X5X1XJ.R.&XyXpX5X~.5X;X.XY.3.;X4X<X#X#X~.-.XX-X=X+XJ.4.y.XX.X X4.D.W.q.>.$.4.i.u.e.q.5.L >.q.0.6.4.",
"1.e.e.r.5.5.R.U.r.7.r.7.1.u.~.~./.r.D.U.T.oX.XF.~.T.!.F.7..X~.D.7.r.r.*.6.D.D.D.q.1.6.2.e.e.&.1.1.4.&.O.>.1.&.X.O.O.h R %.%.$.@.",
"%.2.T.!.E.~.~.E.t.Y.T.R.>.-.e.t.~.#X#X#X=Xr.e.e.7.*X*X#X&XoXoXU.P.Y.Y.>.%.-.6.e.D.u.J.D.4.O.O.%.4.2.1.>.2.%.@.O.W L l l X.Q W E ",
"-.-./.oX#X#X#XXXY.Y.XXD.-.2.~.oX-X-X,X-XOX6.r.t.6.<X2X2X1X,X-X~.Y.~.T.*.&.e.D.~.R.~.Y.y.&.O.$.>.w.7.7.5.>.>.>.&.O.L L h Q X.W X.",
"-.O.r.oX$X#X#X~.Y.~.y.1.1.t.XX;X,X&XE.~.E.r.2.t.3.F.,X2X2X,X#XY.~.D.2.*.3.U..XXXE.e.w.6.&.%.&.%.w.7.7.7.2.&.>.@.Q L L h L R X.X.",
"*.*.1.~.$X@X$X~.!.D.e.-.6.T.#X,X1X1X#X~.L.Y.3.r.6.r.oX,X2X,XoX(.P.r.-.-.D.Y.XXXX.XR.q.4.-.&.&.@.1.1.1.2.2.&.#.! Q T L j h T X.X.",
"#.>.6.7.F.(.~..XoXY.6.1.7.T.oX,X,X2X#XL.L.(.7.e.7.D.D.Y.#X$X$X&X~.7.-.1.L.L./.XX.X~.4.1.6.,.%.O.#.&.*.@.Q R R Q R h L h l l T E ",
"@.>.6.6.5.2.q.r.r.e.2.6.2.r.r.!.oXoXD.!.XX(.7.7.6.D.D.F.w.r.D.r.r.7.,.-.7.6.e.D.J.7.6.r.e.-.%.O.Q Q R L L L j L R Q E g h h h h ",
"-.O.*.@.W #.*.&.-.1.-.7.2.,.7.t.t.D.r.r.Y.9.7.r.2.7.2.#.*.>.>.1.1.>.1.2.#.>.5.6.4.2.-.1.&.! &.%.X.Q Q O.O.Q O.! Q X.Q W L h g p ",
"2.1.2.2.>.1.2.1.-.-.1.3.7.3.1.2.2.7.7.6.2.7.F.D.D.t.t.9.7.7.7.2.1.1.3.2.1.&.&.@.%.*.#.@.O.&.-.-.-.&.O.O.@.! O.W T R T L W W E E ",
"~.~..X/.Y.5.>.#.1.1.-.7.r.t.D.r.-.3.r.r.oX@X&X1X1X1X,X#XD.2.-.,.3.1.3.7.7.e.7.@.@.-.&.7.t.r.U.Y.L.L.2.O.O.@.7.1.#.@.Q h W W E E ",
"Y.~.(.(.D.&.O.1.r.9.!.oX$X$X.Xr.r.1.7.oX3X3X*X&X*X,X,X#X6.-.-.F.r.L.XX.X~.R.w.5.&.&.7.~.E.R.t.D.L.L.D.%.! w.w.-.R Q R f R X.Q L ",
"T.D.~.Y.1.%.Q 3.r.r.(.oX$X@XF.r.r.1.3.oX3X3X,X;XoX;X*Xt.1.! 1.F.r.T..X/.~.t.2.5.&.*.7.E.T.T.L.t.r.L.D.#.>.e.-.Q R j j g X.1.>.R ",
"E.w.F.t.&.%.! -.7.Y.XXoX$X@XF.r.7.-.2.L.;X,X,X;X~.~.XXw.-.#.-.9.D././.~.~.r.7.2.#.%.&.E.T.R.U.r.2.t.t.! &.-.O.T L h R E >.2.O.j ",
"t.7.e.4.O.%.O.#.3.~.(.oXoXoXP.~.r.#.7.7.;X;X&XXXY.R.D.>.&.&.#.1.!.(.(./.~.F.D.e.@.%.! Y.R.U.r.6.1.6.6.R R R O.T f L L R ! %.R h ",
"r.6.r.4.$.@.&.W #.r.D.Y.Y.Y.L.~.7.#.2.-.T.~.T.~.P.R.D.1.@.5.O.O.r.F.D.D.F.r.D.6.O.*.Q 1.e.7.7.6.1.1.O.E R j j j j R @.%.*.O.j g ",
"e.2.q.1.%.O.%.! Q -.U.Y.D.7.3.r.,.#.&.%.t.~.~.T.F.D.y.1.%.-.&.W -.r.K.D.7.-.2.-.! *.E %.q.e.7.6.=.$.o.E L L L R R %.&.&.*.O.h g ",
"1.=.$.%.%.@.Q O.! #.5.6.>.*.O.#.#.O.*.%.e.Y.D.r.e.>.1.1.>.O.%.Q #.1.3.>.#.! O.O.Q $.E %.6.0.>.>.$.E o.o.l L h R Q X.@.%.%.R g f ",
"@.$.O.W X.O.#.@.W W Q Q ! ! ! ! ! -.*.%.q.w.7.1.1.>.@.$.%.#.&.Q Q Q Q W R R W R Q &.E %.=.%.@.O.Q T L T j Q h j R E L L R L p p ",
"&.&.-.&.@.%.>.2.1.2.2.2.2.2.1.1.2.3.1.@.$.%.-.2.2.>.#.R L l g s s f h L L Q O.#.&.&.W R Q Q O.#.@.@.W R W Q W h f f p p p p f L ",
"*.#.%.&.&.-.>.1.1.1.2.2.2.2.1.2.1.3.2.2.1.2.-.Q h u 8 3 4 1 1 1 1 1 1 1 2 8 y g E O.@.O.@.%.#.#.@.@.! Q O.Q L L j l L L L l L L ",
"%.&.r.7.5.-.#.-.-.-.-.-.2.2.>.e.7.2.7.7.%.f * + + + X # < 2 0 0 0 0 0 0 0 0 2 1 1 9 X.Q O.Q @.@.Q Q @.-.5.2.R R R j R T j j h h ",
"@.r.Y.Q.~.~.D.R.T.T.Q.F.>.-.R..XXXXXW.%.7 X   + + + + + X # 4 2 0 q 0 q q 0 0 0 0 2 3 s Q >.O.! ! 1.7.7.7.5.O.R R l l h X.=.=.&.",
"@.r.Y.T.Q.~.T.D.Y.T.T.T.-.>.e. X~.4.y     + + + + + + + + + X # 1 8 q q 0 0 0 0 0 0 0 2 1 l L Q %.&.6.7.7.5.-.R R j j l O.$.&.&.",
"O.7.Y.Y.Q.Q.!.F.K.Y.Y.Y.-.-.@.6.O.&   :   + + + + + + + + + + X X % 2 0 0 0 0 0 0 0 0 0 0 1 3 j #.#.-.5.5.4.-.R R h f L R T O.&.",
"O.2.K.Y.Y.Q.^.K.r.P.Y.D.%.#.X.u +   x h., + + + + + X + + + + + + + # 2 0 0 0 0 0 0 0 0 0 0 1 3 Q >.-.>.4.>.O.O.T j h l W E E E ",
"O.#.D.Y.Y.Y.T.D.7.7.J.7.! W g X   : k.k.M : + + + + X + + + + + + + + # 1 0 0 0 0 0 0 0 0 0 0 < 8 W -.&.%.@.%.@.R j h f E E L E ",
"O.R 7.U.Y.Y.Y.r.7.w.6.@.R u +     M l.s.x M $ + + + X + + + + + X $ + X # 1 0 0 0 0 0 0 0 0 2 2 < 8 W &.%.O.@.Q R h h p h l E E ",
"Q R O.D.K.K.Y.w.7.6.>.E u X       M l.x n a.n $ + + X + + X $ , M j.$ + + # 1 0 0 0 0 0 0 0 2 2 2 4 8 X.&.O.O.T L j h f p l E l ",
"R O.%.-.7.D.r.r.y.2.$.g +         @ s.m a.a.M x . + + X > c m v h.k.> O O X # 1 q q 0 0 0 2 2 2 2 2 < 8 L L j L l f h p g f l l ",
"R O.%.%.%.%.>.2.1.>.L &             . : x c c x > X : c M a.m , h.h.$ O O O X # 1 0 5 2 2 2 2 2 2 2 2 - 8 g f h g j h u p p g g ",
"Q R O.R l L W O.O.O.=                     + + X X + @ c M a.v n k.p.X O O O O + % 1 2 2 2 2 2 2 2 2 2 1 4 p l L L L l h f y u 8 ",
"R R R R Q O.O.O.Q p                   + + + + + + + + + @ , x v x $ + + O O O O X % 2 2 2 2 2 2 2 2 2 q 2 y h h h h h h l l h z ",
"e.e.r.e.-.Q Q T h &                   +   + + + + + + X X X + X + + + + O O O O + # 1 2 2 2 2 2 2 5 2 w e 3 E O.E R l p j h h h ",
"6.7.e.e.6.O.R R g                         + + + + + + X X X + + + + + + O O O O O X % 2 2 2 5 5 5 5 0 w w 0 s T G L l 9 h h h f ",
"7.r.F.r.>.E j E *                         + + + + : X o + + + + + + + + O O O O O O O < 5 5 5 5 5 5 q w w e q S G f p 9 h X.X.h ",
"`.'.8XeXuX9XI.#.O                         + + + , h.s.X X + + + + + + + O & = i z z u 3 q 6 q q q 6 e w w w a S k p f h X.O.E p ",
"1.$.&.2.8.{.9XeX`.! &                     + + : d.k.l.x + + + + + + + & u Y } :.| | } ] ~ P d q q q w w V V S S d p p g E W h y ",
"%.@.$.o.l E ;.`.iXqXF.O                   + $ n M k.l.j.$ + + + + + + z ' A._._._.V.B.<.[ { ~ d q q w V V S S S 9 p h T L j p 9 ",
"%.O.$.W L h 7 + 2.9XiXI.t                 . v n , f.l.x.> + + + + O t N.'.].].].].[.I.V.<.| [ ~ a e V V V S S S 9 h E T E l y y ",
"o.E E l l f # . X L 6XiX`.7             + x a.m < N k.k.$ + + + + * ;.[.].].].].].].'.H.V.N.] ` P e G S S S S S q f T R T h 8 8 ",
"E E l h l y x f.n : 3 8XiX6X&           : M a.a., n h.c o + + + + l _.7XwXqXqX7X]._.C.V.V.B.<.` ( G K Y D S S S w 7 f h l p 7 7 ",
"j l l h g 3 M k.h.N M I ].iXI.=       @ n M a.d.m N x o + + + O t 8.iXiXiXiXiXrX].[.].].'.G.V.' ) D ( ] P J F D S 1 7 8 8 y 7 y ",
"L L l R j - f.l.h.> M d.z.9XtXB.+   . c v v v c : $ X + + + * a D G.iXiXiXiXtX0XeXrX7X].].'.G.} ` U M.] v.m...D F 8 7 u u y p u ",
"L L R R f # j.l.k.< v d.a.b.iXeX:.    . . . + + + + + + + 3 S F ] _.iXiXiXiXqXtXiXiXuX7X].[.I.' ` ) n.m.m.[ [ ] ( Z 7 p u u u u ",
"j O.>.&.h + n l.k.v x d.a.M {.uXrXp +     + + + + + X + & S D ^ | A.rXiXiXiXrXiXiXiXiXeX].).<.` ) ` m.m.m.m.m.m.m.| G u u L L l ",
"h @.>.%.y   : f.k.s.n d.m x G 8XiX].g     + + + + + X O y D J ] | | '.iXiXuXrXiXuXiXiXqX].G.` ] ) ] m.m.m.m.m.m.m.m.[ y u L l l ",
"h Q &.X.*     @ , x , @ .   + 8.tXiX8X#.+ + + + + + + & S D U | { | <.].|.qXqX}.rXiXiXqX].C.` ] ) [ n.n.n.n.n.n.n.n.n.P y s l l ",
"h R %.L O                     7 `.iXiXwX;.3 o + + + + = S D ^ ] ] | | | N.A.A.].iXiXiXtX[.C.} ` ) { {  .[ c.c.n.n.n.n.] s u s h ",
"h j $.s +                       y 9XiXiXtX6XB.r O + + 7 D D ( | | | | | | | | S.rXiXiXiX).N.| | | | | ) U [ c.c.c.c.c.c.P s g g ",
"g p X.t                           +.}.tXiXiXiXrX6X'.`.8.D ) | | | | | | | | | | A.|.0X{.| | | | | | { ) ) ) [ [ [ [ [ [ ~ g z g ",
"f p f *                           ; ;.].rXuXiXiXiXiXiX_.F | | | | | | | | | | | ] <.N.N.| | | | ] ` ) ( / ) | | | | | | ) l z h ",
"p s u #                             x z.[.6XqXiXiXiXiX].U | | | | | | | | | | | ] ` | | | | | U F D w q S | | | | | | | ] W h g ",
"u f u +                           . j.l.z.Z.[.|.7XwXwXC./ | | | | | | | | | | | ] ] | ) U K D K U ) { | | | | | | | | Z.9XeX#.g ",
"u u 7 +                           : x.l.h.B _ S._.'.[.<.^ | | | | | | | | | | | ) | | ( V w w K ) ) ) ` ] { | | | | | A.[.|.P t ",
"p u =                             c x.l.h.x < g.z.b.:.P U | | | | | | | | | | | ^ / U U S w w w S K ^ ^ ^ ^ ( | | | ] ) ' ' p 3 ",
"L L y                             c x.l.h.x < s.d.a.M b D ` | | | | | | | | | ) ^ | | { ( F a D D D F J J J F S F D D D D k = * ",
"E E u                             , l.l.h.x > a.d.a.M N A J ( ] | | | | | { ^ F U U K J S D u y G w w w w C S S D D D S a s 7 = ",
"l l 7                             + n k.k.n v f.d.a.M M B D D K / ) ) ) ^ K D V S S C V ' C.+.t s S D D D D D D D D G a 3 7 3 3 ",
"L f =                                 , M a.s.p.M m v x : < d S D D D Y <.).[.V._ B.G.].).).H.O 0 J K F D D G S Z Z V q * 7 7 3 ",
"l s -                                   . . $ $ $ X X + X X O & H ;.B.[.0X9X6X8.= j +.+.! W u O 2 J K K K J Z Z Z Z Z q * t 7 = "
};
