/* XPM */
static char *_c5a303ee2074367862cc4297a60045fyOzbDG8THlclisD4[] = {
/* columns rows colors chars-per-pixel */
"64 64 205 2 ",
"   c #060606",
".  c #0D0D0D",
"X  c #0F0B07",
"o  c #130E0A",
"O  c #190E09",
"+  c #0F100F",
"@  c #14110E",
"#  c #1C140E",
"$  c #0F0F10",
"%  c #0F1010",
"&  c #141414",
"*  c #1A1612",
"=  c #171817",
"-  c #1C1915",
";  c #161719",
":  c #1A1A1A",
">  c #21170F",
",  c #2B1C0E",
"<  c #24190F",
"1  c #211710",
"2  c #241A13",
"3  c #2C1D14",
"4  c #241E1A",
"5  c #2A1F18",
"6  c #301F14",
"7  c #32200F",
"8  c #2E2116",
"9  c #25221C",
"0  c #2B241C",
"q  c #2B291E",
"w  c #332215",
"e  c #392513",
"r  c #3E2916",
"t  c #342419",
"y  c #39261A",
"u  c #372A1A",
"i  c #3C2A1B",
"p  c #1E1E20",
"a  c #201F21",
"s  c #242323",
"d  c #2C2722",
"f  c #2D2A24",
"g  c #282728",
"h  c #2B2B2B",
"j  c #312E25",
"k  c #342F29",
"l  c #382C21",
"z  c #343126",
"x  c #3F3021",
"c  c #35332B",
"v  c #3A362C",
"b  c #3D392E",
"n  c #313130",
"m  c #393631",
"M  c #3D3A32",
"N  c #422A14",
"B  c #442D1E",
"V  c #482F1F",
"C  c #44311E",
"Z  c #4A331E",
"A  c #452E20",
"S  c #443222",
"D  c #4B3422",
"F  c #4E3A23",
"G  c #413C2E",
"H  c #483829",
"J  c #513724",
"K  c #533B26",
"L  c #553E28",
"P  c #413E34",
"I  c #413F38",
"U  c #483B31",
"Y  c #56402A",
"T  c #5A422D",
"R  c #454136",
"E  c #4A4336",
"W  c #454239",
"Q  c #4A453B",
"!  c #4E493D",
"~  c #5F4933",
"^  c #514C3E",
"/  c #584739",
"(  c #634B34",
")  c #684F38",
"_  c #654B33",
"`  c #6B533A",
"'  c #6B5137",
"]  c #72563D",
"[  c #775A3E",
"{  c #4D4A41",
"}  c #484640",
"|  c #524D42",
" . c #5B4F43",
".. c #555145",
"X. c #5A5446",
"o. c #565349",
"O. c #5B564A",
"+. c #5D594C",
"@. c #5C5847",
"#. c #5D5A51",
"$. c #595450",
"%. c #625C4D",
"&. c #685745",
"*. c #7B5E42",
"=. c #735F4B",
"-. c #745B42",
";. c #635D51",
":. c #65604F",
">. c #7A6147",
",. c #73624E",
"<. c #7A654E",
"1. c #666153",
"2. c #6A6455",
"3. c #6E6957",
"4. c #656158",
"5. c #6B665A",
"6. c #6E695B",
"7. c #7D6752",
"8. c #7F6A53",
"9. c #726C5D",
"0. c #76705F",
"q. c #78715F",
"w. c #6D6A61",
"e. c #736E62",
"r. c #786F60",
"t. c #746F6B",
"y. c #767162",
"u. c #7B7464",
"i. c #7E7866",
"p. c #7B756A",
"a. c #7E7A6B",
"s. c #7E7B70",
"d. c #797471",
"f. c #886B4D",
"g. c #836C54",
"h. c #877057",
"j. c #8C755A",
"k. c #897157",
"l. c #92795F",
"z. c #91775B",
"x. c #827967",
"c. c #837C6C",
"v. c #887E6D",
"b. c #937A60",
"n. c #837E71",
"m. c #8A7F71",
"M. c #85816E",
"N. c #89816F",
"B. c #9D8468",
"V. c #868172",
"C. c #8B8473",
"Z. c #8E8976",
"A. c #8B8579",
"S. c #8F8A7A",
"D. c #868178",
"F. c #918776",
"G. c #918977",
"H. c #908778",
"J. c #938C7B",
"K. c #96907E",
"L. c #99927E",
"P. c #B79775",
"I. c #A58766",
"U. c #8D8A86",
"Y. c #938E82",
"T. c #969284",
"R. c #9B9583",
"E. c #9D9985",
"W. c #9C968A",
"Q. c #9E998C",
"!. c #9D9A98",
"~. c #A29985",
"^. c #A29C8B",
"/. c #A09785",
"(. c #A29B90",
"). c #A6A18C",
"_. c #AAA38E",
"`. c #ABA88E",
"'. c #A6A091",
"]. c #A6A293",
"[. c #AAA496",
"{. c #ABA594",
"}. c #AEA993",
"|. c #ADA799",
" X c #ADA89A",
".X c #AFAA9C",
"XX c #B2AD96",
"oX c #B1AB9D",
"OX c #B1AD9E",
"+X c #B3AD9A",
"@X c #B4B196",
"#X c #B6B09D",
"$X c #B9B29C",
"%X c #A7A5A3",
"&X c #A8A6A4",
"*X c #B5AEA1",
"=X c #B7B3A2",
"-X c #BAB4A5",
";X c #B9B2A5",
":X c #BEB8A9",
">X c #BEB7AA",
",X c #C6A580",
"<X c #CBB39A",
"1X c #C1BDAC",
"2X c #C4C0AE",
/* pixels */
"e.D.D.p.6.O.n.S.J.T.T.e.A.^.J.W.T.u.A.W.S.V.R.A.(.Q.Y.n.+.A.T.T.T.Y.a.e.T.n.A.D.e.;.n.p.6.y.4.e.p.e.;.{ o.w.5.5.5.#.Q 5.O.O.#.o.",
"n.W.Y.T.a.2.Y.[.|. XoXC.Y.*X'.[.|.S.^.-X:X#X[.T.>X*X|.W.2.^. XoXoX.X^.r.[.W.T.Y.D.e.T.W.Y.A.6.D.A.s.p.#.5.p.s.a.a.e.{ e.w.;.4.4.",
"a.Q.T.Y.p.5.T.[.}. XoXJ.D.=X*XOXoXc.J.=X1X1X-XT.:X;X|.J.e.^.oXoXoXoX[.2.[.].Q.Q.a.1.Y.W.T.Y.6.n.S.n.e.O.4.a.a.a.a.p.! e.e.5.5.;.",
"p.W.A.p.p.2.^.{.'.R.{.i.a. X-X-X#Xn.A.).1X2X=XJ.:X}.T.C.3.}.*XoX^.^.J.%.R.].'.Q.n.2.p.R.T.Y.2.c.D.e.;.o.5.s.a.y.e.5.I ;.e.w.6.4.",
"1.y.y.u.5.5.A.V.u.9.u.9.1.a.J.J.K.u.c.V.Z.E.T.x.J.Z.G.x.9.T.J.c.9.u.u.@.6.c.c.c.e.1.6.2.u.y.+.1.1.2.+.| ;.1.O.{ | | v R O.O.o...",
"O.2.Z.G.S.J.J.S.i.C.Z.A.;.%.y.i.J.^.^.^.'.u.y.y.9._._.^.).E.E.V.N.C.C.;.O.%.6.y.a.a.n.c.2.| | O.2.2.1.;.2.O...| Q P M M { ! Q W ",
"%.%.K.E.^.^.^.R.C.C.R.c.%.2.J.E.{.{.+X{.E.6.u.i.6.oX$X$X#XXX{.J.C.J.Z.@.+.y.c.J.A.J.D.p.+.| X.;.r.9.9.5.;.;.;.+.| P P v ! { Q { ",
"%.| u.E./.^.^.J.C.J.p.1.1.i.R.}.+X).S.J.S.u.2.i.3.x.XX$X$X+X^.C.J.c.2.@.3.V.T.R.S.y.e.6.+.O.+.O.r.9.9.9.2.+.;...! P P v P Q { { ",
"@.@.1.J./.~./.J.G.c.y.%.6.Z.^.+X#X#X^.J.M.C.3.u.6.u.E.+X$XXXE.L.N.u.%.%.c.C.R.R.T.A.e.2.%.+.+...1.1.1.2.2.+.X.^ ! R I M v R { { ",
"X.;.6.9.x.L.J.T.E.C.6.1.9.Z.E.XX+X$X^.M.M.L.9.y.9.c.c.C.^././.).J.9.%.1.M.M.K.R.T.J.2.1.6.:.O.| X.+.+...! E R ! E v I v M M R W ",
"..;.6.6.5.2.e.u.u.y.2.6.2.u.u.G.E.E.c.G.R.L.9.9.6.c.c.x.r.u.c.u.u.9.:.%.9.6.y.c.n.9.6.u.y.%.O.| ! ! R P G G b P R ! W c v v v v ",
"%.| @...Q X.@.+.%.1.%.9.2.:.9.i.i.c.u.u.C.q.9.u.2.9.2.X.@.;.;.1.1.;.1.2.X.;.5.6.2.2.%.1.+.^ +.O.{ ! ! | | ! | ^ ! { ! Q I v c j ",
"2.1.2.2.;.1.2.1.%.%.1.3.9.6.1.2.2.9.9.6.2.9.x.c.c.i.i.q.9.9.9.2.1.1.3.2.1.+.+...O.@.X.| | +.%.%.%.+.| | ..^ | Q E R R P Q Q W W ",
"J.J.T.K.C.5.;.X.1.1.%.9.u.i.c.u.%.3.u.u.E.~.).#X#X#XXX^.c.2.%.:.3.1.3.9.9.y.9.....%.+.9.i.u.V.C.M.M.2.| | ..9.1.X...! v Q Q W W ",
"C.J.L.L.c.+.| 1.u.q.G.E././.T.u.u.1.9.E.@X@X`.).`.XXXX^.6.%.%.x.u.M.R.T.J.A.r.5.+.+.9.J.S.A.i.c.M.M.c.O.^ r.r.%.Q ! E c R { ! P ",
"Z.c.J.C.1.O.! 3.u.u.L.E./.~.x.u.u.1.3.E.@X@XXX}.E.}._.i.1.^ 1.x.u.Z.T.K.J.i.2.5.+.@.9.S.Z.Z.M.i.u.M.c.X.;.y.%.! Q b b c ! 1.;.E ",
"S.r.x.i.+.O.^ %.9.C.R.E./.~.x.u.9.%.2.M.}.XXXX}.J.J.R.r.%.X.%.q.c.J.J.J.J.u.9.2.X.O.+.S.Z.A.V.u.2.i.i.! O.%.| E G v R W ;.2.| b ",
"i.9.y.2.| O.| X.3.J.L.E.E.E.N.J.u.X.9.9.}.}.).R.C.A.c.;.+.+.X.1.F.L.L.J.J.x.c.y...O.^ C.A.V.u.6.1.6.6.R E Q | R z P P R ! X.R v ",
"u.6.u.2.o...+.Q X.u.c.C.C.C.M.J.9.X.2.%.Z.G.Z.J.N.A.c.1...5.| | u.c.c.c.c.u.c.9.| @.! 1.y.9.9.6.1.1.| W R b b b b Q ..O.@.| b v ",
"y.2.e.1.O.| O.^ ! %.V.C.c.9.3.u.:.X.+.O.i.J.J.Z.x.c.u.1.O.%.+.Q %.u.c.c.9.%.3.%.^ @.W O.e.y.9.6.#.o.} W I I P R R O.+.+.@.| v c ",
"1.#.o.O.O...! | ^ X.5.6.;.@.| X.X.| @.O.y.C.c.u.y.O.| W M d 0 4 0 j P ! ^ ^ | | ! X.W O.6.w.;.;.o.W } } M P v E ! { ..O.O.Q c c ",
"..o.| Q { | X...Q Q ! ! ^ ^ ^ ^ ^ %.@.O.e.9.O.f = . o o # 3 3 3 3 3 3 2 1 2 j M ! +.W O.#.O...| ! R I R b ! v b R W P P Q P j j ",
"+.+.%.+...O.;.2.1.2.2.2.2.2.1.1.2.3.1...Q h : & : : & o o # 2 3 3 3 3 3 3 3 2 5 M ..Q E ! ! | X.....Q Q Q ! Q v z z j j j j c P ",
"@.X.O.+.+.%.;.1.1.1.2.2.2.2.1.2.1.3.2.m = & : : : : : : & . o > 3 3 3 3 3 3 3 3 2 2 E | ..O.X.X.....^ ! | ! I P b b P P P M I P ",
"O.+.u.9.5.%.X.%.%.%.%.%.2.2.;.y.9...f & & : : : : : : : : : & . # 3 3 3 3 3 3 3 3 3 1 d { ! ....! ! ..%.5.2.Q Q E b R R b b v v ",
"..u.C.F.J.J.c.A.Z.Z.F.x.;.%.A.T.e.: & & = = : : : : : : : : : & . o 3 3 3 3 3 3 3 6 w 2 4 O.| ^ ^ 1.9.9.9.5.| Q Q M M v { #.#.+.",
"..u.C.Z.F.J.Z.c.C.Z.Z.Z.%.;.r.#.: & & & * * = : : : : : : : : : & o # 2 3 3 3 3 w w w w 3 2 b ! O.+.6.9.9.5.%.Q Q b b M | o.+.+.",
"| 9.C.C.F.F.G.x.v.C.C.C.%.%.R & & & & & * # = & : : : : : : : : : & . # 3 3 w w w w w w w 2 * v X.X.%.5.5.2.%.Q R v c I Q R | O.",
"| 2.m.C.C.F.H.m.u.N.C.c.O.c & & & & & & * # * & & & : : : = : : : : & . # 3 w w w w w w 3 3 1 * Q ;.%.;.2.;.| ^ E b v M Q W W W ",
"| X.c.C.C.C.Z.c.9.9.n.9.v & & & & & & * # # * & & & & & = & : : : : : & o # 3 3 8 8 3 3 3 3 3 1 - Q %.+.O...O...Q b v z W W I W ",
"| E 9.V.C.C.C.u.9.r.6.M & & & & & & & * # # * & & : & & & & : : : : : : & o 2 3 3 3 3 3 3 3 3 3 1 2 Q +.O.| ..! R v v j v M W W ",
"! Q | c.m.m.C.r.9.6.o.; & & & & & & & * # # * & & & & & & & : : : : : : : & # 2 3 3 3 3 3 3 3 3 8 1 9 { +.| | R P b v z j M W I ",
"Q | X.%.9.c.u.u.p.+.p % & & & & & & & # # # * & & & & = & : : : : : : : : : o # 3 3 3 3 3 3 6 6 w t 1 9 P P b P M c v j c c M M ",
"R | O.O.O.O.;.2.1.M % & & & & & & & & # # # # & & & & & : : : : : : : : : : = @ 2 3 3 3 3 w w w w i w 1 0 c z v c b v f j j c c ",
"! E | Q M I Q | Q ; & & & & & & & & & # # # # & & & & : : : : : : : : : : p : & # 3 3 3 3 w w w t i i 3 2 j M P I I M v z d d 9 ",
"Q R R Q ! | | | s $ & & & & & & & & & # # # * & & & & : : : : : : : : : p p a : & # w w w w t t y i B y 2 d v v v v v v M M v v ",
"y.y.u.y.%.! ! v 5 * & & & & & & & & & # # # * & & : : : : : : : : : : p p a a a = o 3 w w t t w y i B B 3 2 W | W R M j b v v v ",
"6.9.y.y.6.| I d w w 2 & & & & & & & * # * * - & : : : : : : : : : : : p s s s s : & > w t w u w u B B B B 3 k Q M I b q v v v c ",
"2.2.0.6.{ W c t 8 w w 2 & & & & 2 & * 2 2 2 2 = : : : : : : : : : : p : s s s s s : # 3 w w u u i B B B B w 3 j b z j q v { { v ",
"6.O.1.1.Q I f S i w w t 2 & & * B 2 * * 2 2 2 & = : : : : : : : : : p a s s s s s s & 1 w u u t i B B B B B 2 4 z q c v { | R j ",
"1...O.o.M M l S x i w w t - & 2 C w * u C C 8 : : : : : : : : : : : p a s s s s s s : * w u t t i B B B B B t 2 9 f j c W Q v f ",
"O...o.} M c x S S S S w t 8 * 8 C u u Z C u 3 - : : : : : : : : : : p s s s s s s s s = 2 t t t i B B B B Z B 3 - j v R I b j q ",
"O.| o.Q M c K K K F F u t t 2 i C B Z Z B B C C C u 0 : : : : : : p a s s s s s s s s : # t y y u B B V D D D w 2 v W R W M d d ",
"} W W M n E ~ ~ ( ~ F S t u u B C Z Z C C Z F F F F K C 9 : : p p a s s s s s s s s s s * 8 y y y B Z D D D D u 3 c R R R v 0 0 ",
"W W M v m / ( ( ( ( T F t i i i Z Z Z Z F F F F F F F F S 9 : p p a s s s s s s s s s s = 3 y y y B A D D D D B 8 9 z v M j 9 9 ",
"b M M v U ( ( ) ) ) _ F u B C i Z F F F F F F F F F K K K D 0 : a s s s s s s s s s h h : * y y y B D D D D D D t 2 9 0 0 0 9 d ",
"I I M M / ` ' ) ' ' _ S i C C i F F F F F F F F F F K K K K S : s s s s s s s s s g h h s * t u i i D D D F D D B 8 9 d d d j f ",
"P P Q M ,.<.<.` ' ' T B S S S i F F F F F F F F K K K K K K K x s s s s s s s s s h h h h = w i i i A F D D D J D t 9 j f f f d ",
"b | ;.| <.7.7.-.` ` Y B S S S i F F F F F K K K K K K K K L L K 0 s s s s s s s s h h h h : 3 i i i B D D D J J J t 4 f f I I M ",
"v ..;.X.7.8.8.>.] ] L S S S S C F F F K K K K K K K K K L L Y Y S 4 s s s s s s h h h h h : 2 y i B B A J J J J J t 8 s f I M M ",
"v ! +.&.g.g.g.<.] [ ' C S D C Z F F D C D K K K K K K K L L Y Y K d s s s s s s h h h h h s 1 y B B B B D J J K K B t - 9 k M M ",
"v E o.,.g.g.g.h.*.[ *.T D D B D F t 2 U.!.X.F K K K L L L L Y T T S s s s s s h h h h h h g * t B B B B B D K K K D t - 9 d h v ",
"v b } g.h.k.k.j.k.>._ ) T D i F C # k %X%Xt.t K K L L L L Y T T T T d s s g h h h h h h h h = w B B B B B B D K K D t 2 s h c c ",
"c j } k.j.j.j.j.j.j.~ D F D D F u # * !.&X{ 2 L L L L L Y Y T T T T K 0 s g h h h h h h h h : 8 B B B B B B B D K K t 2 f c m c ",
"c j ! j.j.j.l.l.l.g.K F F F F F S d.$.4 d # 3 L L L Y Y Y T T T T T &.7.E s h h h h h h h h 4 t F B B B B B B B B K t 8 s m M v ",
"j k  .j.l.l.b.b.b.g.C i F F F K F 6.W # # > B L Y Y T T T T T T ) z.<X<XB.f h h h h h h n n s 8 K J A B B B B B B B t 8 9 v m v ",
"d c ! =.=.=.&.) v y w w D K K K K S 8 2 3 S L T T T T T T T T T -.I.P.,X` 0 h h h h h h h n s 5 J K K D B B B B B B t 3 - h c c ",
"f f & : - = & . & 3 w w r K K K K L L F K T T T T T T T T T T T _ _ f.P.F 0 h h h h h h h n s 5 D L K D B B B B B B t 3 = 9 s s ",
"j d . & & & & & & , w w w B K K L L Y T T T T T T T T T T T T L Z N Z Z u g h h h h h h h n s 4 F K K K D B B B B B y 5 & - - - ",
"I M . & & . . & @ 2 w w e e B K Y T Y L K K F F F F T T T T Z N N N N N 0 h h h h h h h h n h 4 D K K K F B B B B B y 8 @ - = = ",
"W M . & . & . & & # w e e e e r S B u i S D K K K L T T Z N N N N N N u f h h h h h h h h n h 4 D K K K K B B B B B i 8 - f 9 - ",
"M v . & & . . % & & < e 7 , , , 6 r F Y T T T T L D u 3 e N N N N N y s h h h h h h h h h n h 4 D K K K K A B B B B i w - 9 4 4 ",
"I f . . . . . . . . . o , w e e e e y y y y w , 3 w r r r r r r e 3 : s s s s s s s s s s g s 4 i S S S S i y y y y t 3 = 4 9 4 ",
"M h &                   X o o o o o o o O O O O O # # # # # # # # o & & & & & & & & & & & & & & 3 A A A A i t t t t t t = s 9 - "
};
