/* XPM */
static char *_aa7e5fee54c458993f6f8f075108ccatp9fXrq7pARx0GL8[] = {
/* columns rows colors chars-per-pixel */
"64 64 220 2 ",
"   c #1B120D",
".  c #1C1B16",
"X  c #1E1D19",
"o  c #201F1A",
"O  c #291D14",
"+  c #23231D",
"@  c #29251E",
"#  c #2C2419",
"$  c #322519",
"%  c #3C2B1D",
"&  c #322417",
"*  c #262521",
"=  c #292721",
"-  c #2D2A24",
";  c #2E2D29",
":  c #272823",
">  c #312D26",
",  c #3D2E23",
"<  c #322F29",
"1  c #343127",
"2  c #34322B",
"3  c #39362D",
"4  c #3C392E",
"5  c #3E3027",
"6  c #363531",
"7  c #393632",
"8  c #3D3A32",
"9  c #3C3B3C",
"0  c #3A373B",
"q  c #402F1F",
"w  c #42311F",
"e  c #402E20",
"r  c #453222",
"t  c #483524",
"y  c #4E3825",
"u  c #423C2E",
"i  c #4A3728",
"p  c #513B26",
"a  c #543E28",
"s  c #423E34",
"d  c #423E39",
"f  c #4B3D34",
"g  c #523F30",
"h  c #5C432C",
"j  c #454136",
"k  c #494436",
"l  c #46433A",
"z  c #4A463B",
"x  c #4D493D",
"c  c #4E4936",
"v  c #524C3D",
"b  c #5A4735",
"n  c #57513E",
"m  c #59523F",
"M  c #63492E",
"N  c #6C4E2E",
"B  c #62472F",
"V  c #6F512F",
"C  c #74532F",
"Z  c #654B31",
"A  c #6B4E33",
"S  c #614730",
"D  c #6E5134",
"F  c #6A543F",
"G  c #715435",
"H  c #795736",
"J  c #7A5936",
"K  c #765739",
"L  c #795739",
"P  c #775839",
"I  c #795839",
"U  c #3A3C49",
"Y  c #454442",
"T  c #4A4741",
"R  c #4E4B41",
"E  c #48474B",
"W  c #4B4A4C",
"Q  c #464648",
"!  c #524D42",
"~  c #534D4C",
"^  c #514642",
"/  c #555144",
"(  c #5A5445",
")  c #5E5947",
"_  c #565349",
"`  c #5A554A",
"'  c #5D594C",
"]  c #57584A",
"[  c #484A52",
"{  c #504E53",
"}  c #545353",
"|  c #5C5653",
" . c #5E5C51",
".. c #58575D",
"X. c #625A47",
"o. c #625C4D",
"O. c #6F5C48",
"+. c #635E52",
"@. c #655D5B",
"#. c #685E52",
"$. c #66614E",
"%. c #68614E",
"&. c #7C634D",
"*. c #666153",
"=. c #6A6455",
"-. c #6E6956",
";. c #666359",
":. c #6A665A",
">. c #6E6A5C",
",. c #736C5C",
"<. c #766A58",
"1. c #76715E",
"2. c #78715F",
"3. c #575A64",
"4. c #5D5E6B",
"5. c #5A5863",
"6. c #635F60",
"7. c #626261",
"8. c #6F6C60",
"9. c #696768",
"0. c #676466",
"q. c #736E62",
"w. c #796E6A",
"e. c #757263",
"r. c #7A7464",
"t. c #7E7866",
"y. c #76736A",
"u. c #79756A",
"i. c #7E796B",
"p. c #7A7775",
"a. c #7F7D70",
"s. c #815D39",
"d. c #805D37",
"f. c #846139",
"g. c #8A6439",
"h. c #896437",
"j. c #916939",
"k. c #846B54",
"l. c #896F57",
"z. c #8F745C",
"x. c #86715F",
"c. c #917153",
"v. c #847464",
"b. c #817967",
"n. c #837C6B",
"m. c #8B7C6D",
"M. c #897769",
"N. c #847F71",
"B. c #937863",
"V. c #86806E",
"C. c #89816E",
"Z. c #97816D",
"A. c #858172",
"S. c #8B8473",
"D. c #8E8975",
"F. c #8A867A",
"G. c #8E897B",
"H. c #928775",
"J. c #918976",
"K. c #938C7B",
"L. c #988D7B",
"P. c #9D8470",
"I. c #95917D",
"U. c #9B927E",
"Y. c #A6876A",
"T. c #AC8D73",
"R. c #A38972",
"E. c #AD9175",
"W. c #B39375",
"Q. c #BB9976",
"!. c #B49678",
"~. c #BA9979",
"^. c #B79878",
"/. c #B18F6C",
"(. c #C19F7C",
"). c #C2A07C",
"_. c #938D81",
"`. c #959183",
"'. c #9C9583",
"]. c #9F9984",
"[. c #9D988A",
"{. c #9A9589",
"}. c #9D9996",
"|. c #A19682",
" X c #A29A85",
".X c #A29C8B",
"XX c #A99D89",
"oX c #A49E90",
"OX c #B79D86",
"+X c #ABA38D",
"@X c #A7A38C",
"#X c #A6A192",
"$X c #A6A394",
"%X c #ABA492",
"&X c #ADA892",
"*X c #ABA899",
"=X c #B2AB93",
"-X c #B3AC9A",
";X c #B8AD97",
":X c #BEB39D",
">X c #B6B196",
",X c #B9B4A5",
"<X c #B5AFA1",
"1X c #C6A481",
"2X c #C9A682",
"3X c #CFAA85",
"4X c #D4AE89",
"5X c #DAB48D",
"6X c #D5B08B",
"7X c #DEB790",
"8X c #E3BC93",
"9X c #E9BF97",
"0X c #ECC297",
"qX c #ECC298",
"wX c #E7C097",
"eX c #F5E0CD",
"rX c white",
"tX c gray97",
"yX c gray89",
"uX c #D4D0CF",
/* pixels */
"A.u._ F._._.u.{.G.`.r._.G.G.A..X_.*._.#X$XF.[.[..XN.K.L.G.i.[.G.:.u.`.`.F.i.F.F.y.>.i.e.>.a.y.+.` u.u.q.+.q.:.;._ ;.` ` +. .! 7 ",
"{.S.;.[.$X$XA..X$X$Xn..X<X-XF.<X*Xe.$X,X,X.X.X,X-XG.{.,X<XN.<X$Xi.F.*X*X$Xu.oX{.N.q.{.{.u._.F.>.;.F.F.F.+.N.u.q.` y.u.*.8.:.' d ",
"A.e.+.'.K.G.q.N..XoXi.F.$X#XA..XK.,.#X%X.XK.N.-X-XG.S.$X*Xi..XF.,.G.].F.G.*._.'.n.:.N.K.q.A.e.+.*.n.q.q.! e.r.q./ +.8. .*.' ! s ",
",.>.,.,.=.o.( ' ,.,.i.F.G.A.=.D.'.].].A.D.D.=.,.t.K.K.K.,.' t.n.e.b.<.=.` ! =.=.:.e.r.r.! +.=.+.=.` / z s ! / ! ' '  .l z ! x ^ ",
"n.n.b.e.t.=.) ( 1.t.`.%X%XD.,.A.:X:X:X|.U.C.=.J.=X.X'.A.*.-.K.L.K.b.n.2.' ( o.>.u.`.K.A.' <.r.e.=.=.*.v l c ` ' q.q.:.x ! ' ` / ",
"1.r.b.e.<.=.o.) o.i.A.{.I.t.<.,.+X:X;XXXK.,.t. X<X-X'.u.,.,.t.C.S.C.r.=.%.' v ,.e.n.N.,.` ' <.,.<.+.( v z s ! ' +.:.` z s / / / ",
"o.o.( / ( ) o./ ' *.*.>.>.=.<.b.n.D.L.|.D.1.n.K.#X&XS.S.V.,.=.<.o.) ( ' ) ` / ` ' '  .` ` ! ' v z z x z z j l z z z l s s z s 4 ",
"/ ( ' ' o.=.=.*.o.o.o.+.=.,.,.<.,.<.2.r.e.2.1.e.i.i.r.r.,.1.*.o.*.%.o.*.=.%.' ) ` / ` ` o.( x ! ! x ! / ! z z j s j j k j 4 8 8 ",
"n.,.=.=.b.-.=.o.,.,.,.2.t.D.].|.'.b.e.<.,.t.b.b.-.<.,.t.S.U.I.K.,.-.n.e.=.o.*.=.*.*.*.>.r.t.r.' ( +.+.( v ! ! ! ! x / ` ' ' x j ",
"I.U.o.D.J.=.=./ r.n.=.t.&X+X+X>X=XV.*.A.K.&X=X+XC.,.t.>X=X@X+X&Xb.b.|.2.=.( o.t.=.o.V.K.S.A.D.q.` t.=./ x z ' / z +.,.:.=.:.*.s ",
"S.'.' D.=.X./ *.|.U.o.>.@X=X=X].'.<.%.C.|.=X=XL.n.<.t.>X=X=XK.&Xt.D.b.%.n ( b.L.%.` r.K.K.r.S.,.*.=.v k j o.e.( s _ ,.>.*.=.*.s ",
"e.i.! X.o.c o.1.S.,.X.o.>.U.'.J.n.=.o.,. X+X=X'.U.*.,..X@X'.n.I.*.o.=.n / =.t.,.m / / >.b.>.e.' x / c s ! o.o.k s 8 ! +.` ` / 4 ",
",. ._ / / o.t.H.C.X.) ` +.J.I.D.i. .=.' C.U.L.C.D.o.:.n.K.I.V.r.+.` / ` <.C.C.%.v ! r ` r.,.*.! z j z / =.:.( u 8 8 z  .` R 8 6 ",
"' _ _ ! / =.e.V.t./ o.' >.A.i.>.:.:.+.) -.t.=.o.o.o.*.r.S.i.r. .*.` v =.,.t.n.) v / r f :.+.! ! z j v ) o.=.v u 8 s ! / R s 8 7 ",
"` / / +./ n / n / / -.' =.:.:.:.*.*.,.-.*.*.*.=.o.,.=.:.:.=.=.+.' *.o.n n v n v ` ' r r ` / ! x R ! j j s j s j z 8 l l s 8 3 3 ",
"+.o.o.o./ / o.=.=.>.>.=.=.,.,.,.2.2.2.e.e.e.e.1.,.,.,.,.,.,.,.>.=.<.' ( ` *.+.+.+.` r r o.o.` ` ` v z z v R x v x l z z l z l j ",
"o.n.H.S.=.=.o.o.n.F.K..XN.r.<..X&XXXK.U.U.J.,.A.@X]..X.Xi.,.*.C.U.'.t.=.o.o.=.N.n.o.r r ` _ :.t.b.=.! v z ! ;.*.>.:._ l x :.*.' ",
"<.b.J.H.2.%.) -.C.[.4.p.{.D.<.+X=X=X.XXXXXXX,.r.#X%X#X#XS.-.1.n.U.U.H.=.' ' 2.A.K.f r r ` ` =.t.t.e.( v l ' :.q.8.;.:.x x =.=.=.",
"e.r.m.n.e.=.( *.1.r.K..X8X9.-. X&X&X&XU.XX|.=.*.i..X4.~ v ^ ~ 0.A.L.b.<.o.) <.<.e.r r r ! =.<.<.t.=.' v j / ` ` >.>.>.R z =.=.*.",
"t.t.t.1.r.=.( ( ,.,.K..Xp.0XZ.S.+X+X+XK.J.V.o.i.5.V f.s.s.s.s.s.S 4.t.,./ ! o.=.e.r r r ! >.,.,.=.*.o.x s c / _ >.>.:.R s *.=.*.",
",.e.t.,.-.o.` / ' r.i.I.K.6.qX~.].+X.XJ.n.=.7.b s.G &.l.l.O.D J J J z =.' / c :.q.r r r ! ' >.>.=.o.( x z 4 R ` *.:.` l 8 ! *.*.",
"o.' ( / / / ( R / +.*.:.=.*.v.0X7.A.S.J.r.+.N J k.E.W.Y.z.z.z.&.H H H b ( ! W ` ' r r r ! v ) / v z z j j 8 j x z z l s 8 z x / ",
"x x ! ! / o.*.` / / ! / ` o.*.M.0X@.=.=.=.b Y.~.~.~.~.~.~.W.z.z.z.F G G z ' ! G W r % % W ! z l k j z ! x s s 4 3 8 8 l 8 s 8 4 ",
">.+.o.' =.o.o.( =.=.+.*.=.e.t.r.0X0X@.' ..H ~.~.~.~.^.~.~.W.l.&.l.z.&.G G ..' g.d H j.C =.:.=./ / / / v z x x x z z x ! ! R l 7 ",
"S.V./ e.C.%.%.v =.=.o.=.J.K.I.].0X0Xm.=.^ W.~.~.~.~.~.~.~.k.z.z.z.z.z.S G g ^ d.C j.G S ~ _ i.*.! ,.=.! x j ! x l / =.+.*.*.' 8 ",
"n.S./ b.o./ v ` A.C./ +.I.U.I.S.0.0X0X,.k.~.3X0X0X0X0X7XY.~.~.~.~.~.z.z.G G J f.g.g.g.g.g.g.g.g.^ %.c s s / >.! 3 / =.*.` +.l 3 ",
":.r.z ( ) j ! o.i.=.v / *.V.A.r.8.0X0X3.^.5X0X0X0X0X0XT.4X4X~.~.~.~.T.z.G G N g.g.g.g.g.g.g.g.g.g.! k 3 j ` ' j 4 7 ! ' / / 7 3 ",
"=._ z z c z =.t.1./ v x ! r.b.r.:.2X0X..0X0X0XqX0X0X(.0X0X0X0X~.~.~.!.k.G G M g.g.h.h.g.g.g.g.h.g.J s j ' o.! u 4 3 8 ` ! ! 7 1 ",
"/ R R l x ' <.e.-.c v x ` e.>.+.' @.0X1X5X0X0X0XqX0X5X0X0X0X0X0X~.~.z.A G G M f.f.f.f.f.f.f.f.f.f.f.s._ ` o.z 3 3 7 z R l 8 6 1 ",
"! l l ! k v v v v k ` x ` ' ' ` ! { 0X0X!.0X0X0X0X0X0X0X0X0X0X0X~.~.z.G G G N f.f.f.f.f.f.f.s.s.s.s.s.b u j 4 4 8 3 d 8 8 3 2 1 ",
"( ( ! R z z ! / / ' ' / ` o.o.' o. .0X0X4.0X0XqX0X0XqX0X0X0X0X0X~.~.Y.G G D H s.s.s.s.s.s.s.s.s.s.s.I J j s s j j s s s s s 4 2 ",
"x =.e.e./ / v / ' *.>.n.;.` ` b.n.r.0X0X..w.0X0X0X0X0X0XT.0XqX0X5X~.~.k.G a I s.  uXtXH I I I J J J J J W j ' ` _ ` z 8 8 8 x ! ",
"o.,.e.t.o./ x ( 1.A.A.N.u.e.` S.D.G.0X0X9.n.8XqX0X0XqXR.6X0X0X0X0X0XL I I a I O   rXrX# J J I J J I I I G l +.*.*. . .8 3 l ! / ",
"o.#.e.q.+./ z / o.=.y.i.A.e.` n.S.S.0X0X9.b.3.8X0X0X!.4.0X0X0X0X0X8X5XI I I H     }.yX  I I I I I I I I P A Q ' *.+._ 3 8 z z ! ",
"=.=.*.+.*./ k k ' ' e.N.A.q.` q.F.F.0X0X;.,.x 3.~.0Xy.P.0X0X0X0X0X0Xc.H I H I p.rX      I I I I L P I I OXeXqX} ' _ s 3 l x z l ",
"o.=.=.o.' ! z j x +.:.i.r.o.! / n.u.0X0X| / / ,.N.u.3.Z.).3X^.m.n.r t I I I I I t   $ I I L I I I I I I Q.8XB.Y ! z 8 3 3 z z z ",
"/ / ! c x x l j l / _ ' ] / ! ` +.7.0X0X .R ' ,.N.N.>.` ` ! / ' ,., t t I H I I I L I I I I I I I H I I B /.i W _ s l 3 1 8 8 3 ",
"8 4 4 4 j x ! s s s s l l z ! / / | 0X0X| x x _ +.*.` =.` ! ! / z 9 t t a I I I L I I I L H I I I I I h t t t R l l l 3 2 - = = ",
"! x x x ! x x x ! ! x x ! ` ' / / E.0X0Xz x ! z z x R z R ' / / x x r t t t t a % w h Z G I I Z t t t t t t 9 7 7 2 2 8 8 8 2 2 ",
",.=.l ` <./ ! s ! ! ! ! =.,.r.i.r.8X0XqX/ ' +.*.! z / >.,.e.r.r.+.l Q t # O % t y Z K K G Z $ O q t t t t E l 2 3 l / ! / / l < ",
"=.<.j =.! k s s =.:.j ! r.r.,.>.;.0X0X0X+.,.q.+./ z / r.r.e.=.,.z d U t t t t t t t t r O $ t t t t t t } / s 8 2 ! _ / x ! x - ",
"` *.8 v z 4 s x =.` s j ` >.>.' } 0X0X0X;.,.,.+.` j x q.e.,.` [ Y b I I I I h y t % % t t t t t t , W ` _ ! j 4 < l / ! l l l - ",
"/ z 7 3 4 3 x ' ` k 4 s s ' +.' } 0X0X0X} *.:.+.o.s j ' *.} U _ Z I I I I I I G % h t t t t t t 0 > s x ! R x 4 < 2 z l s 8 1 = ",
"l 8 8 3 4 k ` o.( 4 4 7 j ' ` ! | 0X0X0X;.` ! j z 8 s R } } R z P I I I H L K h I I K p t t s 9 2 1 1 l j 2 2 > - - l s 8 < : = ",
"d 3 6 8 2 s s z k 1 s 8 l R z l @.6X0X0X7X4 3 3 4 s s z R E I I I I I I I K I I I I I I t t , 2 2 > > > - : - - > - 3 2 1 : * * ",
"s s s j j 4 3 3 3 s z j j l z z | ~.0X0X0XW z z z z j j l P I I I I I I L I I I I I I L p t t 0 8 s 8 4 3 3 3 3 2 < < < 1 > - - ",
"! x z l l z j j z ! x R R j z j ~ ~.0X0X0XE.l l z x _ T S P I I I I I I I I H I L L I H a t t t Y 8 8 4 3 2 8 8 7 8 2 > > 8 3 < ",
"+.+.+.` o.+.` s / =.;.;.;.R j z } ~.8X0X0X0Xs ` :.:.:.S a I I H I I I L I I I I I h I I a t t t , ! ! ! 8 2 R R R R z - 2 z l l ",
"o.+.+.' ` ' ( 8 8 ` *.*.*.z 4 R ! ^.~.0X0X0X1Xx /  .A I I I I I I I M B I I L I I I h I t t t t t R ^ ^ 8 > 7 T x z l - > l l j ",
"` ' ' ' ! ` R 3 j R  . .` 8 s / _ x.~.0X0XqX0XW.x E I K I I I I I I I B t y h I L I S P t t t t t 0 l x 3 - 3 s l l 3 - - l s s ",
"s ' ' ` x z 4 8 / ' _ R l 8 s ! / { ~.4X0X0XqX0X).H I L I I I H I I I I B r t A I Z a L t r t t $ , j 4 - 7 l l 8 3 : : * 3 s s ",
"8 x ` ! / s 3 j / ' ' R s s 8 j z z =.~.5X0X0X0Xa I I I I I I I L I I H I I p r y I D p t 5 9 t % E s > - 8 l l d 1 ; : + - 7 8 ",
"8 3 3 s s 8 2 7 j R R l x s 8 2 1 > 1 ~.~.8X0X0Xh I L I I I L I I I I L I I D K % h I t t $ 3 U 0 3 3 - - 1 3 8 2 2 2 * + : * * ",
"2 < 1 2 2 2 3 2 2 3 7 3 2 3 8 4 3 4 4 x.~.~.9X8Xa I I P I I I I I K I I I I I I I I A t t # 1 - > - - - > : : - : * + = + + + + ",
"R x 8 > 3 3 s l l 3 2 8 ! R _ _ / 8 8 ! W ~.~.W.t I I I L I I I P L I I I I I I I L t t t $ x s > : < > 3 3 1 * @ - 3 3 8 3 2 + ",
"R l < - 8 l ! R j 4 2 s _ _ / _ ` 3 R z 3 9 ~.~.t K I I I I I I I I I I I I I I I A t t t > T 3 @ - 2 8 s 8 > - + 3 8 7 3 3 - X ",
"s 7 - - 3 z R R s 4 > 3 / / / l / 2 j 4 > - U B.r y I I I L I I I I H L I I L H G t t t t 9 j : = - 2 s 8 3 - = + 1 8 7 1 1 + o ",
"8 < : = > j l l j s - > x z l s j - - > @ 2 8 j 7 t Z I I I I H I I I H P I % t t t t t $ 7 3 + = + > 3 3 2 2 : + * 2 ; : : X X ",
"3 ; * - + 3 8 3 1 2 - = 8 l s 7 1 ; : - 2 s l l > 9 t a I I I I I I L I L y r t t t t $ 9 2 1 * + + + 2 1 = @ + X X ; - * * X . ",
": : : * + @ @ + + @ - : 3 3 2 2 : - - @ 1 2 3 4 - : r t t Z I H I I I D t % t t t t & <.8 - * * + o o o o . . . X X * + + . . . ",
"- : : > > - - > > > 1 - - - > 1 > - < > = @ @ @ - 2 2 e t t t t t t t t $ t t t t $ 2X0X8XT.= * * @ * + + + + + + X X X X X . . ",
"1 - - - - > - > > 1 > < ; > > 2 2 1 < > < < < < < > < ~.~.b e w r e , r 5 0 O.~.~.1X0X6X2X5X; : = @ * + + + + + + + X o o X X = ",
"s s j 8 s s 3 - 7 l l l l 2 > z z z s l l s > 3 z l l _ ~.~.~.~.wX6X0X0Xo.= 1 l <.Z.~.T.v.2 8 8 3 2 2 2 @ + 1 2 < > - X X + > - ",
"l l l d d l 8 ; 2 l Y Y Y 7 < Y T T T l l l 2 2 l Y Y Y 9 <.~.1X0X2XqXZ.: - 6 8 d 9 9 9 : 2 8 8 8 6 7 3 ; * ; 6 2 2 2 * * : ; 2 "
};
