/* XPM */
static char *ffabf94f9df240e385c60761a06be12cZNdmwx4JsaKxyhdf[] = {
/* columns rows colors chars-per-pixel */
"64 64 161 2 ",
"   c #1C1B16",
".  c #1E1D19",
"X  c #201F1A",
"o  c #24231D",
"O  c #29261E",
"+  c #2B281E",
"@  c #262521",
"#  c #292721",
"$  c #272823",
"%  c #2D2A24",
"&  c #2E2D29",
"*  c #312D26",
"=  c #322F29",
"-  c #343127",
";  c #35322B",
":  c #39362D",
">  c #3C392E",
",  c #363531",
"<  c #393631",
"1  c #3D3A32",
"2  c #3E3D38",
"3  c #423C2F",
"4  c #423E34",
"5  c #423E38",
"6  c #454136",
"7  c #4A4436",
"8  c #4F4A37",
"9  c #46433A",
"0  c #4A463B",
"q  c #4D493E",
"w  c #524C3D",
"e  c #57513E",
"r  c #474641",
"t  c #494640",
"y  c #4E4B41",
"u  c #524E42",
"i  c #555145",
"p  c #5A5445",
"a  c #5E5947",
"s  c #565349",
"d  c #5A564A",
"f  c #57584A",
"g  c #5D594C",
"h  c #5F5C51",
"j  c #625A47",
"k  c #625C4D",
"l  c #635E51",
"z  c #695F53",
"x  c #67614E",
"c  c #68614F",
"v  c #666154",
"b  c #6A6455",
"n  c #6D6956",
"m  c #666458",
"M  c #6B6659",
"N  c #6E6A5B",
"B  c #716B56",
"V  c #726D5C",
"C  c #786F5E",
"Z  c #76715E",
"A  c #78715F",
"S  c #6F6B60",
"D  c #736E62",
"F  c #757162",
"G  c #7A7464",
"H  c #7E7866",
"J  c #777368",
"K  c #7A766A",
"L  c #7E7A6B",
"P  c #7F7D70",
"I  c #807766",
"U  c #817967",
"Y  c #837C6C",
"T  c #887F6E",
"R  c #847F71",
"E  c #86816E",
"W  c #89816E",
"Q  c #858173",
"!  c #8B8473",
"~  c #8E8976",
"^  c #8B867A",
"/  c #8E897B",
"(  c #928775",
")  c #918976",
"_  c #938C7B",
"`  c #988D7B",
"'  c #95917D",
"]  c #9B927E",
"[  c #938D81",
"{  c #959182",
"}  c #989586",
"|  c #9B9484",
" . c #9F9784",
".. c #9E9787",
"X. c #9B9583",
"o. c #9E9984",
"O. c #999589",
"+. c #9A9488",
"@. c #9A968B",
"#. c #9B9889",
"$. c #9E988A",
"%. c #9C988C",
"&. c #9C9A8D",
"*. c #A19682",
"=. c #A09883",
"-. c #A39A85",
";. c #A09A8A",
":. c #A1998C",
">. c #A09A8C",
",. c #A19B8D",
"<. c #A39D8D",
"1. c #A29C8E",
"2. c #A49D8D",
"3. c #A49F8C",
"4. c #A49E8E",
"5. c #A39D8A",
"6. c #A99D89",
"7. c #A29F90",
"8. c #A59D90",
"9. c #A6A18D",
"0. c #ABA38D",
"q. c #ACA88D",
"w. c #A3A091",
"e. c #A7A191",
"r. c #A6A092",
"t. c #A7A193",
"y. c #A5A293",
"u. c #A7A495",
"i. c #A8A191",
"p. c #A9A292",
"a. c #AAA592",
"s. c #ABA693",
"d. c #A9A395",
"f. c #A9A697",
"g. c #ADA797",
"h. c #ACA591",
"j. c #ADA892",
"k. c #ABA899",
"l. c #B2A793",
"z. c #B0A996",
"x. c #B2AB93",
"c. c #B8AD97",
"v. c #B1AA98",
"b. c #B2AB99",
"n. c #B1AB9B",
"m. c #B5AF9F",
"M. c #B5AC99",
"N. c #B7B295",
"B. c #B6B098",
"V. c #BBB09C",
"C. c #BEB39D",
"Z. c #BFB49E",
"A. c #BFB49E",
"S. c #B5AFA1",
"D. c #B7B1A3",
"F. c #B5B2A3",
"G. c #B6B0A4",
"H. c #BAB4A6",
"J. c #B9B2A0",
"K. c #BCB9A8",
"L. c #BDBAA9",
/* pixels */
"Q K s ^ [ [ K +./ { J [ / / Q >.[ v [ w.y.^ #.&.>.R _ ` / L $./ M L { { ^ L ^ ^ J N L F N P J l d K K D l D M m s m d d l h u < ",
"} ! m &.y.u.Q >.u.y.Y >.G.n.^ D.g.F d.K.K.<.>.H.m./ } H.D.R S.y.L ^ k.f.d.K 7.O.R D O.O.K [ ^ N m ^ ^ ^ l R L D d J K v S M g 5 ",
"Q F l | _ / D R 2.8.L ^ y.i.Q <._ V i.s.;._ R n.n./ ! y.g.L 2.^ V /  .^ / v [ | Y M R _ D Q F l v Y D D u F J D i l S h v h u 4 ",
"V N C V b k p g C V L ^ / Q m ~ |  . .! ~ ~ b V H _ _ _ V g H Y F U B b a u b b M F G J u l b l b a i 0 4 u i u g g h 9 9 u q u ",
"Y Y U F H b a p Z H { s.s.~ C ! V.C.Z.=.] W b ) z.3.| Q v n _ ` _ U Y A g p k N K { _ Q g B J F b b v w 9 8 d g D D M q u g d i ",
"Z G U F B b k a k L Q } ' H B V 0.Z.c.-._ C H 5.V.M.| K V C H W ! W G b x g w V F Y R V d g B V B l p w 0 4 u g l M d 0 4 i i i ",
"k k p i p a k i g v v N N b B U T ~ ` *.~ Z Y _ i.s.! ! E C b B k a p g a d i d g g h d d u g w 0 0 q 0 0 6 9 0 0 0 9 4 4 0 4 > ",
"i p g g k b b v k k k l b V C B V B A G F A Z F L L J G V Z v k v x k v b x g a d i d d k p q u u q u i u 0 0 6 4 6 6 7 6 > 1 1 ",
"Y C b b U n b k C C C A H ~ o.=. .U F B C G U I n B C H ! ] ' _ V n Y F b k v b b v v V G H G g p l l p w u u u u q i g g g q 6 ",
"' ] k ~ ( b b i G Y b H j.q.q.N.x.E v ! _ j.x.0.W V H B.x.0.0.j.U U *.A b p k H b k E _ ! ! ~ V a H b i q 0 g i 0 l V M b M v 4 ",
"! X.g ~ b j i v  .] k N 9.x.x.o.X.B x W =.x.x.` Y B H N.x.x._ q.H ~ U c e p U ` x d G _ _ G ! N v b w 7 6 k F p 4 s V N v m v 4 ",
"F L u j k 8 k Z ! C j k N ]  .) Y m k C -.0.x. .] v V 3.0. .T ' v k b e i b H C i i i N Y N F g q i 8 4 u k k 7 4 1 u l d d i > ",
"V h s i i k H ( W j a d l ) ' ~ L h b g W ] ` W ~ k M Y _ ` T G l g i a B W W c w u y v G V v u 0 6 0 i b M p 3 1 1 0 h d y 1 , ",
"g s s u i b F E G i k g N Q L N M M l a n G b k k k v J ! L J h v d w b C H Y a w i i N M l u u 0 6 w a k b w 3 1 4 u i y 4 1 < ",
"d i i l i e i e i i n g b M M M v v C b x v v b k V b M M b b l g v k e e w e w a g i d d i u q y u 6 6 4 6 4 6 0 1 9 9 4 1 : : ",
"l k k k i i k b b N n b b V C C A A A F F A F Z C C C C C C V N b B g p a v l l l k d g k k a d d w 0 0 w y q w q 9 0 0 9 0 9 6 ",
"k T ( ! b b k k Y ~ ` 5.R J B 3.j.6._ ] ] ) C Q 9.o.5.5.H C b W ]  .G b k g b T Y ^ Y M a p M H U b u w 0 u m v N M s 9 q M v g ",
"B U ) ( C c a n W  .5.X.} / B 0.j.l.0.-.6.6.C G i.s.i.i.! n C Y ] ] ( x g g A ^ _ ^ Q Q d a b H H F p w 9 g M D S m M q q b b b ",
"F G T Y F b p v Z G _ ;.2.~ n -.j.j.j.X.-.*.b b L 2.9.9.F k T W ! ` U B k a N B F ^ ^ ! i b B B H b g w 6 i d d N N N y 0 b b v ",
"H H H Z G b p p V F / ;.<.! M ! i.j.q._ _ E k H X.| { Q l v ! ~ W H H C i u k n F _ / R d N C B b v k q 4 8 i s N N M y 4 v b v ",
"C F H C B k a i g G L { _ F b b  .0.3.) Y b n _ 5. .Q D v b G U Y U Z b g i q M D L R N i k N N b k p q 0 > y d v M d 9 1 u v v ",
"k g p i i i p y i l v M b v l V F ! ! ( G l V T X.o.Y F F b k b k g i a p u q p g g g d i w a i w 0 0 6 6 1 6 q 0 0 0 4 1 0 q i ",
"q q u u i k v d i i u i g k v v v k b b b k l v F F N F M b p i i i i k v g u q q q u q a y 0 9 7 6 0 u q 4 4 > : 1 1 9 1 4 1 > ",
"N l k g b k k p b b b v b F L H G v v a a k v k d k l k N H H G l k b x k p k k k a a k m M m u i i i w 0 q q q 0 0 q u u y 9 < ",
"! E i F W x x w b b k b ) _ ' o. .V p b C T ! ! N k b ' ' _ ] X.N b ) C c u p v a a V Y L Y Y v u C b u q 6 u 0 9 i m l v v g 1 ",
"L ! i U k i w d ! W i l ' ] ' ! ! k u V U _ _ H n k M  .X.' Y ' B H C a 8 u N W g u Z E Y V L b a v 8 4 4 i N u : i b v d l 9 : ",
"M G 0 p a 6 u k L b w i v E ! G V i u k ! ) _ Y G p k ) _ ! V E d k k 8 q p V N w q y N F v N s q w 7 : 6 p g 6 > < u g i i < : ",
"b s 0 0 8 0 b H Z i w q u G U J M y i q V L U F G u d V K U D N u q w q d F J a 8 0 9 d V v g t 6 4 1 6 g k u 3 > : 1 d u u < - ",
"i y y 9 q g B F n 8 w q d F N l g s i 0 g B k w i w u v J N v s s q 0 i b V C w 7 0 0 l v g 0 0 4 > 6 i a k 0 : : < 0 y 9 1 , - ",
"u 0 9 u 7 w w w w 7 d q d g g g u u d u w w q q q p i d g d g y y u 8 8 w 8 i 7 q y 0 i u q 9 5 4 6 > 6 3 6 > : 1 : 5 1 1 : ; - ",
"p p u y 0 0 u i i g g i d k k g k k k k k k k k k k k g k k g a g g g p u u u u p i i u u u q w q q q 6 6 4 4 6 6 4 4 4 4 4 > ; ",
"q b F F i i w i g v N Y m d a U T H b M M b g b L D G K g a C T F v z b l d d D M M V s y d V b d p p u 0 6 d s s d 0 1 1 1 q u ",
"g V F H k i q p Z Q Q R K F a ! ~ ~ T T T T g b ^ ^ ^ ^ F p Y ! ^ R H H H g d L L K K N q l J D C b b b u 6 l v v h h 1 : 9 u i ",
"k z F C l i 0 i k b J L Q F d T ! ! ! H T Y d u N Q Q Q v d F ! ! ! D H H d q g F K G v y a D D V b b b u 1 9 g v l s : 1 0 0 u ",
"b b v l v i 7 7 g g F R Q D d D ^ ^ ! Z F C q g D L L D u a l ! T T D b F q i v V D M 0 q q F V V b d l 6 4 u d g s 4 : 9 q 0 9 ",
"k b b k g u 0 6 q l M L G k u i Y ! T D b u u V Q K M g i p q G T Y M b u q v F D l s 0 0 6 l V V l i 0 : q h h u 0 1 : : 0 0 0 ",
"i i u 8 q q 9 6 9 i s g f i u d v G F G l y g V Y R N g a u i g V C C l 0 u v D F M u i 0 9 u k v k a 4 1 u g h s 4 9 : - 1 1 : ",
"1 > > > 6 q u 4 1 4 4 9 9 0 u i i 0 i s s q q s l v d m d u u i 0 y i i 0 0 y d g i d i 0 5 0 4 4 9 9 1 1 4 0 y 9 9 9 : ; % # # ",
"u q q q u q q q u u q q u d g i i q u 0 0 q u 0 0 q q 0 u g i i q q 9 6 6 0 6 6 6 9 6 6 u q 0 9 4 1 > : 1 : : : < ; ; 1 1 1 ; ; ",
"V m 9 d B i u 4 u u u u b V G L G g 0 q i g l v u 0 i N V F G G l 9 9 q i g g y 4 0 g v m n M d 1 > 6 9 y q 9 ; : 9 i u i i 9 = ",
"b B 6 b u 7 4 4 b M 6 u G G V N N q 4 p l D D l i 0 i G G Z b V 0 4 u d M M l q 0 6 b M b g v 9 : 4 0 d d i 4 1 ; u s i q u q % ",
"d v 1 w 0 > 4 q b d 4 6 g N N g g 9 4 u M V V l a 6 q F F V d l 4 4 0 k b b g i 4 4 g M v i d < : : 0 d s u 6 > = 9 i u 9 9 9 % ",
"i 0 < : > : q g a 7 > 4 4 g l g u 1 4 4 g v b l k 4 9 g v l d d 1 4 : i g k d g 4 1 0 d i y y : : * 4 y y q 0 > = ; 0 9 4 1 - # ",
"9 1 1 : > 7 d k p > > < 6 g d u t 4 6 : q a i 6 0 1 4 y g g y q 2 1 ; 4 i u 4 6 > : 4 i u 0 9 < ; * - 9 6 ; ; * % % 9 4 1 = $ # ",
"5 : , 1 ; 4 4 0 7 - 4 1 0 y 0 9 1 1 4 : > > : : > 4 4 0 y 0 9 1 1 1 : : : ; ; ; : 1 1 9 4 4 : ; ; - * * % # % % * % : ; - $ @ @ ",
"4 4 4 6 6 > : : : 4 0 6 6 9 0 0 0 6 9 6 9 0 0 0 0 0 6 6 9 0 0 0 6 6 4 4 6 6 6 6 6 4 : 1 1 4 1 > 1 1 1 > : : : : ; = = = - * % % ",
"u q 0 9 9 0 6 6 0 u q y y 6 0 6 0 d k 0 6 4 9 6 0 q s 0 6 0 6 7 u k 9 4 : 4 4 6 6 y 0 1 1 4 q 9 1 4 1 > : ; 1 1 < 1 ; * * 1 : = ",
"l l l a k l d 4 i m m m m y 6 0 g b b u 7 4 4 p M M M g g 6 6 p l k i 4 1 > q h h g s i : q g d s u u u 1 ; y y y y 0 % ; 0 9 9 ",
"k l l g a g p 1 1 s v v v 0 > y u l l i 6 > 6 q i h h v h : q u a k p 4 < > 0 q s s g d > 9 d d d q u w 1 * < t q 0 9 % * 9 9 6 ",
"d g g g u d y : 6 y h h d 1 4 i i i i u 0 > : 0 0 s v v g 1 i i u u q 0 : ; 6 6 0 g g s 1 1 d s i y 9 q ; % : 4 0 9 : % % 9 4 4 ",
"4 g g d q 0 > 1 i g s y 9 1 4 u i i q q 6 : ; 1 0 u l h u 1 u u u q q 4 : - - 6 0 s s q : - y i i 0 6 < % : 9 9 1 : $ $ @ : 4 4 ",
"1 q d u u 4 : 6 i g g y 4 4 1 6 0 0 9 4 1 : ; ; 9 9 q 0 9 1 1 6 0 6 > > - ; * 1 1 5 9 4 ; ; 1 q u 0 6 * % 1 9 0 5 - & $ o % < 1 ",
"1 : : 4 4 1 ; < 6 y y 9 q 1 1 ; - * * - : 1 ; = ; - - : ; 1 ; - * % % ; : * % % * * - % - * : - ; : < % % - : 1 ; ; ; @ o $ @ @ ",
"; = - ; ; ; : ; ; : < : ; : 1 > : 1 > : : : < > : : ; : : 1 : < : : : ; ; ; ; ; ; = - ; ; = * % * % % % % $ $ $ $ @ o # o o o o ",
"y q 1 * : : 4 9 9 : ; 1 u y s s i 1 1 i 6 4 * > > 1 1 9 y i s i 1 : q 6 > - ; ; : : 1 0 0 q q 6 * % = * ; : - @ O % : : 1 : ; o ",
"y 9 = % 1 9 u y 6 > ; 4 s s i s d : q 0 : - % 4 y ; > s s i u s 4 9 0 : - % ; 0 ; = 0 y q 9 0 : O % ; 1 4 1 * % o : 1 < : : % . ",
"4 < % % : 0 y y 4 > * : i i i 9 i ; 6 : * % ; y 0 * ; 9 i i 4 i > 4 : * O = 9 0 * % : 0 q 1 6 $ # % ; 4 1 : % # o - 1 < - - o X ",
"1 = $ # * 6 9 9 6 4 % * q 0 9 4 6 % % * O ; 1 6 : % * = 1 9 1 6 % % % O % : 1 ; + # # - 1 < : @ # o * : : ; ; $ o @ ; & $ $ . . ",
": & @ % o : 1 : - ; % # 1 9 4 < - & $ % - 4 9 9 * % % % 1 4 1 ; & $ # % > 5 4 * O @ @ ; < ; - @ o o o ; - # O o . . & % @ @ .   ",
"$ $ $ @ o O O o o O % $ : : ; ; $ % % O - ; : > % # % = , ; ; $ & $ o * - - : O o $ $ - & % @ @ o X X X X       . . @ o o       ",
"% $ $ * * % % * * * - % % % * - % % = * # O O # % ; * % % * * * % % % o o o o o % % o @ # $ # o @ O @ o o o o o o . . . . .     ",
"- % % % % * % * * - * = & * * ; ; = * = = * = = - * * * * * * % = 1 % % O * % % $ % % @ $ $ % # # O @ o o o o o o o . X X . . # ",
"4 4 6 1 4 4 : % < 9 9 9 9 ; * 0 0 0 4 9 9 4 = < 0 9 0 0 < * % 1 6 4 : % $ # - 2 1 4 < ; @ ; 4 1 : ; ; ; O o - ; = * % . . o * % ",
"9 9 9 5 5 9 1 & ; 9 r r r < = r 0 t t 9 0 9 ; = 9 r r r 1 & , < 9 9 5 & $ % , 1 5 2 2 2 $ , 4 1 1 , < : & @ & , ; ; ; @ @ $ & ; "
};
